<?xml version="1.0" encoding="utf-8"?>
<svg xmlns="http://www.w3.org/2000/svg" xmlns:xlink="http://www.w3.org/1999/xlink" style="margin: auto; background: rgb(241, 242, 243); display: block; z-index: 1; position: relative; shape-rendering: auto;" width="2003" height="751" preserveAspectRatio="xMidYMid" viewBox="0 0 2003 751">
<g transform="translate(1001.5,375.5) scale(1,1) translate(-1001.5,-375.5)"><defs>
<linearGradient id="lg-0.4658434682206338" x1="0" x2="0" y1="0" y2="1">
  <stop stop-color="#fc4309" offset="0.3"></stop>
  <stop stop-color="#ff765c" offset="0.6499999999999999"></stop>
  <stop stop-color="#ff765c" offset="1"></stop>
</linearGradient>
<linearGradient id="fg-lg-0.4658434682206338" x1="0" x2="0" y1="0" y2="1">
  <stop stop-color="#fc4309" stop-opacity="1" offset="0.3"></stop>
  <stop stop-color="#ff765c" stop-opacity="0.66" offset="0.6499999999999999"></stop>
  <stop stop-color="#ff765c" stop-opacity="0" offset="1"></stop>
</linearGradient>
<style type="text/css">
  path { fill: none; stroke: #ffb646; stroke-width: 2px }
</style>
</defs>
<rect x="0" y="0" width="2003" height="751" fill="url(#lg-0.4658434682206338)"></rect><path d="M0 225.29999999999998 L-14021 751"></path><path d="M15.407692307692308 225.29999999999998 L-13789.884615384615 751"></path><path d="M30.815384615384616 225.29999999999998 L-13558.76923076923 751"></path><path d="M46.223076923076924 225.29999999999998 L-13327.653846153846 751"></path><path d="M61.63076923076923 225.29999999999998 L-13096.538461538461 751"></path><path d="M77.03846153846153 225.29999999999998 L-12865.423076923076 751"></path><path d="M92.44615384615385 225.29999999999998 L-12634.307692307691 751"></path><path d="M107.85384615384615 225.29999999999998 L-12403.192307692309 751"></path><path d="M123.26153846153846 225.29999999999998 L-12172.076923076924 751"></path><path d="M138.66923076923078 225.29999999999998 L-11940.961538461539 751"></path><path d="M154.07692307692307 225.29999999999998 L-11709.846153846154 751"></path><path d="M169.48461538461538 225.29999999999998 L-11478.73076923077 751"></path><path d="M184.8923076923077 225.29999999999998 L-11247.615384615385 751"></path><path d="M200.3 225.29999999999998 L-11016.5 751"></path><path d="M215.7076923076923 225.29999999999998 L-10785.384615384615 751"></path><path d="M231.1153846153846 225.29999999999998 L-10554.26923076923 751"></path><path d="M246.52307692307693 225.29999999999998 L-10323.153846153846 751"></path><path d="M261.9307692307692 225.29999999999998 L-10092.038461538461 751"></path><path d="M277.33846153846156 225.29999999999998 L-9860.923076923078 751"></path><path d="M292.74615384615385 225.29999999999998 L-9629.807692307691 751"></path><path d="M308.15384615384613 225.29999999999998 L-9398.692307692309 751"></path><path d="M323.5615384615385 225.29999999999998 L-9167.576923076922 751"></path><path d="M338.96923076923076 225.29999999999998 L-8936.461538461539 751"></path><path d="M354.37692307692305 225.29999999999998 L-8705.346153846154 751"></path><path d="M369.7846153846154 225.29999999999998 L-8474.23076923077 751"></path><path d="M385.1923076923077 225.29999999999998 L-8243.115384615385 751"></path><path d="M400.6 225.29999999999998 L-8012 751"></path><path d="M416.0076923076923 225.29999999999998 L-7780.884615384615 751"></path><path d="M431.4153846153846 225.29999999999998 L-7549.7692307692305 751"></path><path d="M446.82307692307694 225.29999999999998 L-7318.653846153846 751"></path><path d="M462.2307692307692 225.29999999999998 L-7087.538461538462 751"></path><path d="M477.6384615384615 225.29999999999998 L-6856.423076923077 751"></path><path d="M493.04615384615386 225.29999999999998 L-6625.307692307692 751"></path><path d="M508.45384615384614 225.29999999999998 L-6394.192307692308 751"></path><path d="M523.8615384615384 225.29999999999998 L-6163.076923076923 751"></path><path d="M539.2692307692307 225.29999999999998 L-5931.961538461538 751"></path><path d="M554.6769230769231 225.29999999999998 L-5700.846153846154 751"></path><path d="M570.0846153846154 225.29999999999998 L-5469.7307692307695 751"></path><path d="M585.4923076923077 225.29999999999998 L-5238.615384615385 751"></path><path d="M600.9 225.29999999999998 L-5007.5 751"></path><path d="M616.3076923076923 225.29999999999998 L-4776.384615384615 751"></path><path d="M631.7153846153847 225.29999999999998 L-4545.2692307692305 751"></path><path d="M647.123076923077 225.29999999999998 L-4314.153846153846 751"></path><path d="M662.5307692307692 225.29999999999998 L-4083.038461538461 751"></path><path d="M677.9384615384615 225.29999999999998 L-3851.923076923076 751"></path><path d="M693.3461538461538 225.29999999999998 L-3620.8076923076915 751"></path><path d="M708.7538461538461 225.29999999999998 L-3389.6923076923085 751"></path><path d="M724.1615384615385 225.29999999999998 L-3158.576923076924 751"></path><path d="M739.5692307692308 225.29999999999998 L-2927.461538461539 751"></path><path d="M754.9769230769231 225.29999999999998 L-2696.3461538461543 751"></path><path d="M770.3846153846154 225.29999999999998 L-2465.2307692307695 751"></path><path d="M785.7923076923076 225.29999999999998 L-2234.1153846153848 751"></path><path d="M801.2 225.29999999999998 L-2003 751"></path><path d="M816.6076923076923 225.29999999999998 L-1771.8846153846152 751"></path><path d="M832.0153846153846 225.29999999999998 L-1540.7692307692305 751"></path><path d="M847.4230769230769 225.29999999999998 L-1309.6538461538457 751"></path><path d="M862.8307692307692 225.29999999999998 L-1078.538461538461 751"></path><path d="M878.2384615384616 225.29999999999998 L-847.4230769230762 751"></path><path d="M893.6461538461539 225.29999999999998 L-616.3076923076915 751"></path><path d="M909.0538461538462 225.29999999999998 L-385.19230769230853 751"></path><path d="M924.4615384615385 225.29999999999998 L-154.07692307692378 751"></path><path d="M939.8692307692307 225.29999999999998 L77.03846153846098 751"></path><path d="M955.276923076923 225.29999999999998 L308.15384615384573 751"></path><path d="M970.6846153846154 225.29999999999998 L539.2692307692305 751"></path><path d="M986.0923076923077 225.29999999999998 L770.3846153846152 751"></path><path d="M1001.5 225.29999999999998 L1001.5 751"></path><path d="M1016.9076923076923 225.29999999999998 L1232.6153846153848 751"></path><path d="M1032.3153846153846 225.29999999999998 L1463.7307692307695 751"></path><path d="M1047.7230769230769 225.29999999999998 L1694.8461538461543 751"></path><path d="M1063.1307692307691 225.29999999999998 L1925.961538461539 751"></path><path d="M1078.5384615384614 225.29999999999998 L2157.076923076924 751"></path><path d="M1093.946153846154 225.29999999999998 L2388.1923076923085 751"></path><path d="M1109.3538461538462 225.29999999999998 L2619.3076923076915 751"></path><path d="M1124.7615384615385 225.29999999999998 L2850.423076923078 751"></path><path d="M1140.1692307692308 225.29999999999998 L3081.538461538461 751"></path><path d="M1155.576923076923 225.29999999999998 L3312.6538461538476 751"></path><path d="M1170.9846153846154 225.29999999999998 L3543.7692307692305 751"></path><path d="M1186.3923076923077 225.29999999999998 L3774.884615384617 751"></path><path d="M1201.8 225.29999999999998 L4006 751"></path><path d="M1217.2076923076922 225.29999999999998 L4237.115384615383 751"></path><path d="M1232.6153846153845 225.29999999999998 L4468.2307692307695 751"></path><path d="M1248.0230769230768 225.29999999999998 L4699.346153846152 751"></path><path d="M1263.4307692307693 225.29999999999998 L4930.461538461539 751"></path><path d="M1278.8384615384616 225.29999999999998 L5161.576923076922 751"></path><path d="M1294.246153846154 225.29999999999998 L5392.6923076923085 751"></path><path d="M1309.6538461538462 225.29999999999998 L5623.8076923076915 751"></path><path d="M1325.0615384615385 225.29999999999998 L5854.923076923078 751"></path><path d="M1340.4692307692308 225.29999999999998 L6086.038461538461 751"></path><path d="M1355.876923076923 225.29999999999998 L6317.153846153848 751"></path><path d="M1371.2846153846153 225.29999999999998 L6548.2692307692305 751"></path><path d="M1386.6923076923076 225.29999999999998 L6779.384615384617 751"></path><path d="M1402.1 225.29999999999998 L7010.5 751"></path><path d="M1417.5076923076922 225.29999999999998 L7241.615384615383 751"></path><path d="M1432.9153846153847 225.29999999999998 L7472.7307692307695 751"></path><path d="M1448.323076923077 225.29999999999998 L7703.846153846152 751"></path><path d="M1463.7307692307693 225.29999999999998 L7934.961538461539 751"></path><path d="M1479.1384615384616 225.29999999999998 L8166.076923076922 751"></path><path d="M1494.5461538461539 225.29999999999998 L8397.192307692309 751"></path><path d="M1509.9538461538461 225.29999999999998 L8628.307692307691 751"></path><path d="M1525.3615384615384 225.29999999999998 L8859.423076923078 751"></path><path d="M1540.7692307692307 225.29999999999998 L9090.538461538461 751"></path><path d="M1556.176923076923 225.29999999999998 L9321.653846153848 751"></path><path d="M1571.5846153846153 225.29999999999998 L9552.76923076923 751"></path><path d="M1586.9923076923078 225.29999999999998 L9783.884615384617 751"></path><path d="M1602.4 225.29999999999998 L10015 751"></path><path d="M1617.8076923076924 225.29999999999998 L10246.115384615383 751"></path><path d="M1633.2153846153847 225.29999999999998 L10477.23076923077 751"></path><path d="M1648.623076923077 225.29999999999998 L10708.346153846152 751"></path><path d="M1664.0307692307692 225.29999999999998 L10939.461538461539 751"></path><path d="M1679.4384615384615 225.29999999999998 L11170.576923076922 751"></path><path d="M1694.8461538461538 225.29999999999998 L11401.692307692309 751"></path><path d="M1710.253846153846 225.29999999999998 L11632.807692307691 751"></path><path d="M1725.6615384615384 225.29999999999998 L11863.923076923078 751"></path><path d="M1741.0692307692307 225.29999999999998 L12095.038461538461 751"></path><path d="M1756.4769230769232 225.29999999999998 L12326.153846153848 751"></path><path d="M1771.8846153846155 225.29999999999998 L12557.26923076923 751"></path><path d="M1787.2923076923078 225.29999999999998 L12788.384615384617 751"></path><path d="M1802.7 225.29999999999998 L13019.5 751"></path><path d="M1818.1076923076923 225.29999999999998 L13250.615384615383 751"></path><path d="M1833.5153846153846 225.29999999999998 L13481.73076923077 751"></path><path d="M1848.923076923077 225.29999999999998 L13712.846153846152 751"></path><path d="M1864.3307692307692 225.29999999999998 L13943.961538461539 751"></path><path d="M1879.7384615384615 225.29999999999998 L14175.076923076922 751"></path><path d="M1895.1461538461538 225.29999999999998 L14406.192307692309 751"></path><path d="M1910.553846153846 225.29999999999998 L14637.307692307691 751"></path><path d="M1925.9615384615386 225.29999999999998 L14868.423076923078 751"></path><path d="M1941.3692307692309 225.29999999999998 L15099.538461538461 751"></path><path d="M1956.7769230769231 225.29999999999998 L15330.653846153848 751"></path><path d="M1972.1846153846154 225.29999999999998 L15561.76923076923 751"></path><path d="M1987.5923076923077 225.29999999999998 L15792.884615384617 751"></path><path d="M2003 225.29999999999998 L16024 751"></path><g>
<path d="M0 225.29999999999998 L2003 225.29999999999998"></path>
<animateTransform attributeName="transform" type="translate" repeatCount="indefinite" calcMode="linear" keyTimes="0;1" values="0 0;0 3.981633136094674" begin="0s" dur="0.3144654088050315s"></animateTransform>

</g><g>
<path d="M0 229.28163313609465 L2003 229.28163313609465"></path>
<animateTransform attributeName="transform" type="translate" repeatCount="indefinite" calcMode="linear" keyTimes="0;1" values="0 0;0 7.963266272189349" begin="0s" dur="0.3144654088050315s"></animateTransform>

</g><g>
<path d="M0 237.244899408284 L2003 237.244899408284"></path>
<animateTransform attributeName="transform" type="translate" repeatCount="indefinite" calcMode="linear" keyTimes="0;1" values="0 0;0 11.944899408284023" begin="0s" dur="0.3144654088050315s"></animateTransform>

</g><g>
<path d="M0 249.18979881656801 L2003 249.18979881656801"></path>
<animateTransform attributeName="transform" type="translate" repeatCount="indefinite" calcMode="linear" keyTimes="0;1" values="0 0;0 15.926532544378697" begin="0s" dur="0.3144654088050315s"></animateTransform>

</g><g>
<path d="M0 265.11633136094673 L2003 265.11633136094673"></path>
<animateTransform attributeName="transform" type="translate" repeatCount="indefinite" calcMode="linear" keyTimes="0;1" values="0 0;0 19.90816568047337" begin="0s" dur="0.3144654088050315s"></animateTransform>

</g><g>
<path d="M0 285.0244970414201 L2003 285.0244970414201"></path>
<animateTransform attributeName="transform" type="translate" repeatCount="indefinite" calcMode="linear" keyTimes="0;1" values="0 0;0 23.889798816568046" begin="0s" dur="0.3144654088050315s"></animateTransform>

</g><g>
<path d="M0 308.9142958579881 L2003 308.9142958579881"></path>
<animateTransform attributeName="transform" type="translate" repeatCount="indefinite" calcMode="linear" keyTimes="0;1" values="0 0;0 27.87143195266272" begin="0s" dur="0.3144654088050315s"></animateTransform>

</g><g>
<path d="M0 336.7857278106508 L2003 336.7857278106508"></path>
<animateTransform attributeName="transform" type="translate" repeatCount="indefinite" calcMode="linear" keyTimes="0;1" values="0 0;0 31.853065088757393" begin="0s" dur="0.3144654088050315s"></animateTransform>

</g><g>
<path d="M0 368.6387928994082 L2003 368.6387928994082"></path>
<animateTransform attributeName="transform" type="translate" repeatCount="indefinite" calcMode="linear" keyTimes="0;1" values="0 0;0 35.83469822485207" begin="0s" dur="0.3144654088050315s"></animateTransform>

</g><g>
<path d="M0 404.47349112426025 L2003 404.47349112426025"></path>
<animateTransform attributeName="transform" type="translate" repeatCount="indefinite" calcMode="linear" keyTimes="0;1" values="0 0;0 39.81633136094674" begin="0s" dur="0.3144654088050315s"></animateTransform>

</g><g>
<path d="M0 444.28982248520697 L2003 444.28982248520697"></path>
<animateTransform attributeName="transform" type="translate" repeatCount="indefinite" calcMode="linear" keyTimes="0;1" values="0 0;0 43.79796449704141" begin="0s" dur="0.3144654088050315s"></animateTransform>

</g><g>
<path d="M0 488.08778698224836 L2003 488.08778698224836"></path>
<animateTransform attributeName="transform" type="translate" repeatCount="indefinite" calcMode="linear" keyTimes="0;1" values="0 0;0 47.779597633136085" begin="0s" dur="0.3144654088050315s"></animateTransform>

</g><g>
<path d="M0 535.8673846153845 L2003 535.8673846153845"></path>
<animateTransform attributeName="transform" type="translate" repeatCount="indefinite" calcMode="linear" keyTimes="0;1" values="0 0;0 51.76123076923076" begin="0s" dur="0.3144654088050315s"></animateTransform>

</g><g>
<path d="M0 587.6286153846153 L2003 587.6286153846153"></path>
<animateTransform attributeName="transform" type="translate" repeatCount="indefinite" calcMode="linear" keyTimes="0;1" values="0 0;0 55.74286390532543" begin="0s" dur="0.3144654088050315s"></animateTransform>

</g><g>
<path d="M0 643.3714792899407 L2003 643.3714792899407"></path>
<animateTransform attributeName="transform" type="translate" repeatCount="indefinite" calcMode="linear" keyTimes="0;1" values="0 0;0 59.7244970414201" begin="0s" dur="0.3144654088050315s"></animateTransform>

</g><g>
<path d="M0 703.0959763313608 L2003 703.0959763313608"></path>
<animateTransform attributeName="transform" type="translate" repeatCount="indefinite" calcMode="linear" keyTimes="0;1" values="0 0;0 63.70613017751478" begin="0s" dur="0.3144654088050315s"></animateTransform>

</g><g>
<path d="M0 766.8021065088756 L2003 766.8021065088756"></path>
<animateTransform attributeName="transform" type="translate" repeatCount="indefinite" calcMode="linear" keyTimes="0;1" values="0 0;0 67.68776331360945" begin="0s" dur="0.3144654088050315s"></animateTransform>

</g><rect x="0" y="0" width="2003" height="751" fill="url(#fg-lg-0.4658434682206338)"></rect></g>
</svg>