<svg xmlns="http://www.w3.org/2000/svg" version="1.1" xmlns:xlink="http://www.w3.org/1999/xlink" xmlns:svgjs="http://svgjs.com/svgjs" width="1434" height="1000" preserveAspectRatio="none" viewBox="0 0 1434 1000"><g mask="url(&quot;#SvgjsMask1419&quot;)" fill="none"><rect width="1434" height="1000" x="0" y="0" fill="url(#SvgjsLinearGradient1420)"></rect><path d="M24.83 -12.07L58.61 7.43L58.61 46.43L24.83 65.93L-8.95 46.43L-8.95 7.43zM58.61 46.43L92.38 65.93L92.38 104.93L58.61 124.43L24.83 104.93L24.83 65.93zM58.61 163.43L92.38 182.93L92.38 221.93L58.61 241.43L24.83 221.93L24.83 182.93zM58.61 280.43L92.38 299.93L92.38 338.93L58.61 358.43L24.83 338.93L24.83 299.93zM24.83 338.93L58.61 358.43L58.61 397.43L24.83 416.93L-8.95 397.43L-8.95 358.43zM58.61 631.43L92.38 650.93L92.38 689.93L58.61 709.43L24.83 689.93L24.83 650.93zM24.83 806.93L58.61 826.43L58.61 865.43L24.83 884.93L-8.95 865.43L-8.95 826.43zM24.83 923.93L58.61 943.43L58.61 982.43L24.83 1001.93L-8.95 982.43L-8.95 943.43zM58.61 982.43L92.38 1001.93L92.38 1040.93L58.61 1060.43L24.83 1040.93L24.83 1001.93zM92.38 -12.07L126.16 7.43L126.16 46.43L92.38 65.93L58.61 46.43L58.61 7.43zM126.16 46.43L159.93 65.93L159.93 104.93L126.16 124.43L92.38 104.93L92.38 65.93zM92.38 104.93L126.16 124.43L126.16 163.43L92.38 182.93L58.61 163.43L58.61 124.43zM126.16 163.43L159.93 182.93L159.93 221.93L126.16 241.43L92.38 221.93L92.38 182.93zM92.38 221.93L126.16 241.43L126.16 280.43L92.38 299.93L58.61 280.43L58.61 241.43zM126.16 280.43L159.93 299.93L159.93 338.93L126.16 358.43L92.38 338.93L92.38 299.93zM92.38 338.93L126.16 358.43L126.16 397.43L92.38 416.93L58.61 397.43L58.61 358.43zM126.16 514.43L159.93 533.93L159.93 572.93L126.16 592.43L92.38 572.93L92.38 533.93zM92.38 689.93L126.16 709.43L126.16 748.43L92.38 767.93L58.61 748.43L58.61 709.43zM126.16 748.43L159.93 767.93L159.93 806.93L126.16 826.43L92.38 806.93L92.38 767.93zM92.38 923.93L126.16 943.43L126.16 982.43L92.38 1001.93L58.61 982.43L58.61 943.43zM159.93 -12.07L193.71 7.43L193.71 46.43L159.93 65.93L126.16 46.43L126.16 7.43zM193.71 46.43L227.49 65.93L227.49 104.93L193.71 124.43L159.93 104.93L159.93 65.93zM159.93 104.93L193.71 124.43L193.71 163.43L159.93 182.93L126.16 163.43L126.16 124.43zM159.93 221.93L193.71 241.43L193.71 280.43L159.93 299.93L126.16 280.43L126.16 241.43zM159.93 338.93L193.71 358.43L193.71 397.43L159.93 416.93L126.16 397.43L126.16 358.43zM159.93 572.93L193.71 592.43L193.71 631.43L159.93 650.93L126.16 631.43L126.16 592.43zM159.93 689.93L193.71 709.43L193.71 748.43L159.93 767.93L126.16 748.43L126.16 709.43zM159.93 923.93L193.71 943.43L193.71 982.43L159.93 1001.93L126.16 982.43L126.16 943.43zM227.49 338.93L261.26 358.43L261.26 397.43L227.49 416.93L193.71 397.43L193.71 358.43zM227.49 455.93L261.26 475.43L261.26 514.43L227.49 533.93L193.71 514.43L193.71 475.43zM227.49 572.93L261.26 592.43L261.26 631.43L227.49 650.93L193.71 631.43L193.71 592.43zM261.26 631.43L295.04 650.93L295.04 689.93L261.26 709.43L227.49 689.93L227.49 650.93zM227.49 689.93L261.26 709.43L261.26 748.43L227.49 767.93L193.71 748.43L193.71 709.43zM261.26 748.43L295.04 767.93L295.04 806.93L261.26 826.43L227.49 806.93L227.49 767.93zM261.26 865.43L295.04 884.93L295.04 923.93L261.26 943.43L227.49 923.93L227.49 884.93zM328.81 46.43L362.59 65.93L362.59 104.93L328.81 124.43L295.04 104.93L295.04 65.93zM295.04 104.93L328.81 124.43L328.81 163.43L295.04 182.93L261.26 163.43L261.26 124.43zM328.81 163.43L362.59 182.93L362.59 221.93L328.81 241.43L295.04 221.93L295.04 182.93zM328.81 397.43L362.59 416.93L362.59 455.93L328.81 475.43L295.04 455.93L295.04 416.93zM328.81 514.43L362.59 533.93L362.59 572.93L328.81 592.43L295.04 572.93L295.04 533.93zM295.04 572.93L328.81 592.43L328.81 631.43L295.04 650.93L261.26 631.43L261.26 592.43zM328.81 865.43L362.59 884.93L362.59 923.93L328.81 943.43L295.04 923.93L295.04 884.93zM295.04 923.93L328.81 943.43L328.81 982.43L295.04 1001.93L261.26 982.43L261.26 943.43zM328.81 982.43L362.59 1001.93L362.59 1040.93L328.81 1060.43L295.04 1040.93L295.04 1001.93zM396.37 46.43L430.14 65.93L430.14 104.93L396.37 124.43L362.59 104.93L362.59 65.93zM362.59 221.93L396.37 241.43L396.37 280.43L362.59 299.93L328.81 280.43L328.81 241.43zM396.37 397.43L430.14 416.93L430.14 455.93L396.37 475.43L362.59 455.93L362.59 416.93zM396.37 631.43L430.14 650.93L430.14 689.93L396.37 709.43L362.59 689.93L362.59 650.93zM396.37 748.43L430.14 767.93L430.14 806.93L396.37 826.43L362.59 806.93L362.59 767.93zM362.59 806.93L396.37 826.43L396.37 865.43L362.59 884.93L328.81 865.43L328.81 826.43zM396.37 865.43L430.14 884.93L430.14 923.93L396.37 943.43L362.59 923.93L362.59 884.93zM463.92 46.43L497.69 65.93L497.69 104.93L463.92 124.43L430.14 104.93L430.14 65.93zM463.92 163.43L497.69 182.93L497.69 221.93L463.92 241.43L430.14 221.93L430.14 182.93zM430.14 221.93L463.92 241.43L463.92 280.43L430.14 299.93L396.37 280.43L396.37 241.43zM463.92 280.43L497.69 299.93L497.69 338.93L463.92 358.43L430.14 338.93L430.14 299.93zM430.14 338.93L463.92 358.43L463.92 397.43L430.14 416.93L396.37 397.43L396.37 358.43zM430.14 455.93L463.92 475.43L463.92 514.43L430.14 533.93L396.37 514.43L396.37 475.43zM463.92 514.43L497.69 533.93L497.69 572.93L463.92 592.43L430.14 572.93L430.14 533.93zM463.92 631.43L497.69 650.93L497.69 689.93L463.92 709.43L430.14 689.93L430.14 650.93zM430.14 689.93L463.92 709.43L463.92 748.43L430.14 767.93L396.37 748.43L396.37 709.43zM430.14 806.93L463.92 826.43L463.92 865.43L430.14 884.93L396.37 865.43L396.37 826.43zM430.14 923.93L463.92 943.43L463.92 982.43L430.14 1001.93L396.37 982.43L396.37 943.43zM531.47 46.43L565.25 65.93L565.25 104.93L531.47 124.43L497.69 104.93L497.69 65.93zM497.69 221.93L531.47 241.43L531.47 280.43L497.69 299.93L463.92 280.43L463.92 241.43zM497.69 338.93L531.47 358.43L531.47 397.43L497.69 416.93L463.92 397.43L463.92 358.43zM497.69 572.93L531.47 592.43L531.47 631.43L497.69 650.93L463.92 631.43L463.92 592.43zM497.69 689.93L531.47 709.43L531.47 748.43L497.69 767.93L463.92 748.43L463.92 709.43zM531.47 865.43L565.25 884.93L565.25 923.93L531.47 943.43L497.69 923.93L497.69 884.93zM497.69 923.93L531.47 943.43L531.47 982.43L497.69 1001.93L463.92 982.43L463.92 943.43zM531.47 982.43L565.25 1001.93L565.25 1040.93L531.47 1060.43L497.69 1040.93L497.69 1001.93zM565.25 -12.07L599.02 7.43L599.02 46.43L565.25 65.93L531.47 46.43L531.47 7.43zM599.02 163.43L632.8 182.93L632.8 221.93L599.02 241.43L565.25 221.93L565.25 182.93zM565.25 221.93L599.02 241.43L599.02 280.43L565.25 299.93L531.47 280.43L531.47 241.43zM599.02 280.43L632.8 299.93L632.8 338.93L599.02 358.43L565.25 338.93L565.25 299.93zM599.02 397.43L632.8 416.93L632.8 455.93L599.02 475.43L565.25 455.93L565.25 416.93zM565.25 572.93L599.02 592.43L599.02 631.43L565.25 650.93L531.47 631.43L531.47 592.43zM565.25 806.93L599.02 826.43L599.02 865.43L565.25 884.93L531.47 865.43L531.47 826.43zM565.25 923.93L599.02 943.43L599.02 982.43L565.25 1001.93L531.47 982.43L531.47 943.43zM632.8 -12.07L666.57 7.43L666.57 46.43L632.8 65.93L599.02 46.43L599.02 7.43zM632.8 104.93L666.57 124.43L666.57 163.43L632.8 182.93L599.02 163.43L599.02 124.43zM632.8 455.93L666.57 475.43L666.57 514.43L632.8 533.93L599.02 514.43L599.02 475.43zM666.57 631.43L700.35 650.93L700.35 689.93L666.57 709.43L632.8 689.93L632.8 650.93zM666.57 748.43L700.35 767.93L700.35 806.93L666.57 826.43L632.8 806.93L632.8 767.93zM666.57 865.43L700.35 884.93L700.35 923.93L666.57 943.43L632.8 923.93L632.8 884.93zM700.35 -12.07L734.12 7.43L734.12 46.43L700.35 65.93L666.57 46.43L666.57 7.43zM700.35 221.93L734.12 241.43L734.12 280.43L700.35 299.93L666.57 280.43L666.57 241.43zM734.12 280.43L767.9 299.93L767.9 338.93L734.12 358.43L700.35 338.93L700.35 299.93zM700.35 338.93L734.12 358.43L734.12 397.43L700.35 416.93L666.57 397.43L666.57 358.43zM734.12 514.43L767.9 533.93L767.9 572.93L734.12 592.43L700.35 572.93L700.35 533.93zM700.35 689.93L734.12 709.43L734.12 748.43L700.35 767.93L666.57 748.43L666.57 709.43zM767.9 -12.07L801.68 7.43L801.68 46.43L767.9 65.93L734.12 46.43L734.12 7.43zM767.9 104.93L801.68 124.43L801.68 163.43L767.9 182.93L734.12 163.43L734.12 124.43zM801.68 280.43L835.45 299.93L835.45 338.93L801.68 358.43L767.9 338.93L767.9 299.93zM767.9 455.93L801.68 475.43L801.68 514.43L767.9 533.93L734.12 514.43L734.12 475.43zM767.9 572.93L801.68 592.43L801.68 631.43L767.9 650.93L734.12 631.43L734.12 592.43zM767.9 806.93L801.68 826.43L801.68 865.43L767.9 884.93L734.12 865.43L734.12 826.43zM801.68 865.43L835.45 884.93L835.45 923.93L801.68 943.43L767.9 923.93L767.9 884.93zM801.68 982.43L835.45 1001.93L835.45 1040.93L801.68 1060.43L767.9 1040.93L767.9 1001.93zM835.45 -12.07L869.23 7.43L869.23 46.43L835.45 65.93L801.68 46.43L801.68 7.43zM869.23 46.43L903 65.93L903 104.93L869.23 124.43L835.45 104.93L835.45 65.93zM869.23 280.43L903 299.93L903 338.93L869.23 358.43L835.45 338.93L835.45 299.93zM835.45 338.93L869.23 358.43L869.23 397.43L835.45 416.93L801.68 397.43L801.68 358.43zM835.45 455.93L869.23 475.43L869.23 514.43L835.45 533.93L801.68 514.43L801.68 475.43zM835.45 572.93L869.23 592.43L869.23 631.43L835.45 650.93L801.68 631.43L801.68 592.43zM835.45 923.93L869.23 943.43L869.23 982.43L835.45 1001.93L801.68 982.43L801.68 943.43zM903 -12.07L936.78 7.43L936.78 46.43L903 65.93L869.23 46.43L869.23 7.43zM903 104.93L936.78 124.43L936.78 163.43L903 182.93L869.23 163.43L869.23 124.43zM903 338.93L936.78 358.43L936.78 397.43L903 416.93L869.23 397.43L869.23 358.43zM903 455.93L936.78 475.43L936.78 514.43L903 533.93L869.23 514.43L869.23 475.43zM936.78 631.43L970.56 650.93L970.56 689.93L936.78 709.43L903 689.93L903 650.93zM903 806.93L936.78 826.43L936.78 865.43L903 884.93L869.23 865.43L869.23 826.43zM936.78 865.43L970.56 884.93L970.56 923.93L936.78 943.43L903 923.93L903 884.93zM970.56 -12.07L1004.33 7.43L1004.33 46.43L970.56 65.93L936.78 46.43L936.78 7.43zM1004.33 46.43L1038.11 65.93L1038.11 104.93L1004.33 124.43L970.56 104.93L970.56 65.93zM970.56 221.93L1004.33 241.43L1004.33 280.43L970.56 299.93L936.78 280.43L936.78 241.43zM970.56 455.93L1004.33 475.43L1004.33 514.43L970.56 533.93L936.78 514.43L936.78 475.43zM1004.33 514.43L1038.11 533.93L1038.11 572.93L1004.33 592.43L970.56 572.93L970.56 533.93zM1004.33 631.43L1038.11 650.93L1038.11 689.93L1004.33 709.43L970.56 689.93L970.56 650.93zM1004.33 748.43L1038.11 767.93L1038.11 806.93L1004.33 826.43L970.56 806.93L970.56 767.93zM1004.33 865.43L1038.11 884.93L1038.11 923.93L1004.33 943.43L970.56 923.93L970.56 884.93zM1004.33 982.43L1038.11 1001.93L1038.11 1040.93L1004.33 1060.43L970.56 1040.93L970.56 1001.93zM1038.11 -12.07L1071.88 7.43L1071.88 46.43L1038.11 65.93L1004.33 46.43L1004.33 7.43zM1038.11 221.93L1071.88 241.43L1071.88 280.43L1038.11 299.93L1004.33 280.43L1004.33 241.43zM1071.88 280.43L1105.66 299.93L1105.66 338.93L1071.88 358.43L1038.11 338.93L1038.11 299.93zM1071.88 397.43L1105.66 416.93L1105.66 455.93L1071.88 475.43L1038.11 455.93L1038.11 416.93zM1071.88 514.43L1105.66 533.93L1105.66 572.93L1071.88 592.43L1038.11 572.93L1038.11 533.93zM1071.88 748.43L1105.66 767.93L1105.66 806.93L1071.88 826.43L1038.11 806.93L1038.11 767.93zM1038.11 923.93L1071.88 943.43L1071.88 982.43L1038.11 1001.93L1004.33 982.43L1004.33 943.43zM1105.66 -12.07L1139.44 7.43L1139.44 46.43L1105.66 65.93L1071.88 46.43L1071.88 7.43zM1105.66 104.93L1139.44 124.43L1139.44 163.43L1105.66 182.93L1071.88 163.43L1071.88 124.43zM1139.44 163.43L1173.21 182.93L1173.21 221.93L1139.44 241.43L1105.66 221.93L1105.66 182.93zM1139.44 280.43L1173.21 299.93L1173.21 338.93L1139.44 358.43L1105.66 338.93L1105.66 299.93zM1105.66 338.93L1139.44 358.43L1139.44 397.43L1105.66 416.93L1071.88 397.43L1071.88 358.43zM1139.44 514.43L1173.21 533.93L1173.21 572.93L1139.44 592.43L1105.66 572.93L1105.66 533.93zM1105.66 572.93L1139.44 592.43L1139.44 631.43L1105.66 650.93L1071.88 631.43L1071.88 592.43zM1105.66 689.93L1139.44 709.43L1139.44 748.43L1105.66 767.93L1071.88 748.43L1071.88 709.43zM1105.66 806.93L1139.44 826.43L1139.44 865.43L1105.66 884.93L1071.88 865.43L1071.88 826.43zM1139.44 865.43L1173.21 884.93L1173.21 923.93L1139.44 943.43L1105.66 923.93L1105.66 884.93zM1139.44 982.43L1173.21 1001.93L1173.21 1040.93L1139.44 1060.43L1105.66 1040.93L1105.66 1001.93zM1173.21 -12.07L1206.99 7.43L1206.99 46.43L1173.21 65.93L1139.44 46.43L1139.44 7.43zM1173.21 104.93L1206.99 124.43L1206.99 163.43L1173.21 182.93L1139.44 163.43L1139.44 124.43zM1173.21 221.93L1206.99 241.43L1206.99 280.43L1173.21 299.93L1139.44 280.43L1139.44 241.43zM1206.99 280.43L1240.76 299.93L1240.76 338.93L1206.99 358.43L1173.21 338.93L1173.21 299.93zM1173.21 338.93L1206.99 358.43L1206.99 397.43L1173.21 416.93L1139.44 397.43L1139.44 358.43zM1206.99 514.43L1240.76 533.93L1240.76 572.93L1206.99 592.43L1173.21 572.93L1173.21 533.93zM1206.99 631.43L1240.76 650.93L1240.76 689.93L1206.99 709.43L1173.21 689.93L1173.21 650.93zM1206.99 748.43L1240.76 767.93L1240.76 806.93L1206.99 826.43L1173.21 806.93L1173.21 767.93zM1173.21 806.93L1206.99 826.43L1206.99 865.43L1173.21 884.93L1139.44 865.43L1139.44 826.43zM1206.99 865.43L1240.76 884.93L1240.76 923.93L1206.99 943.43L1173.21 923.93L1173.21 884.93zM1274.54 397.43L1308.32 416.93L1308.32 455.93L1274.54 475.43L1240.76 455.93L1240.76 416.93zM1274.54 514.43L1308.32 533.93L1308.32 572.93L1274.54 592.43L1240.76 572.93L1240.76 533.93zM1240.76 572.93L1274.54 592.43L1274.54 631.43L1240.76 650.93L1206.99 631.43L1206.99 592.43zM1274.54 631.43L1308.32 650.93L1308.32 689.93L1274.54 709.43L1240.76 689.93L1240.76 650.93zM1240.76 689.93L1274.54 709.43L1274.54 748.43L1240.76 767.93L1206.99 748.43L1206.99 709.43zM1274.54 748.43L1308.32 767.93L1308.32 806.93L1274.54 826.43L1240.76 806.93L1240.76 767.93zM1240.76 923.93L1274.54 943.43L1274.54 982.43L1240.76 1001.93L1206.99 982.43L1206.99 943.43zM1274.54 982.43L1308.32 1001.93L1308.32 1040.93L1274.54 1060.43L1240.76 1040.93L1240.76 1001.93zM1342.09 46.43L1375.87 65.93L1375.87 104.93L1342.09 124.43L1308.32 104.93L1308.32 65.93zM1308.32 104.93L1342.09 124.43L1342.09 163.43L1308.32 182.93L1274.54 163.43L1274.54 124.43zM1308.32 221.93L1342.09 241.43L1342.09 280.43L1308.32 299.93L1274.54 280.43L1274.54 241.43zM1308.32 455.93L1342.09 475.43L1342.09 514.43L1308.32 533.93L1274.54 514.43L1274.54 475.43zM1342.09 514.43L1375.87 533.93L1375.87 572.93L1342.09 592.43L1308.32 572.93L1308.32 533.93zM1342.09 631.43L1375.87 650.93L1375.87 689.93L1342.09 709.43L1308.32 689.93L1308.32 650.93zM1308.32 689.93L1342.09 709.43L1342.09 748.43L1308.32 767.93L1274.54 748.43L1274.54 709.43zM1342.09 748.43L1375.87 767.93L1375.87 806.93L1342.09 826.43L1308.32 806.93L1308.32 767.93zM1308.32 806.93L1342.09 826.43L1342.09 865.43L1308.32 884.93L1274.54 865.43L1274.54 826.43zM1308.32 923.93L1342.09 943.43L1342.09 982.43L1308.32 1001.93L1274.54 982.43L1274.54 943.43zM1342.09 982.43L1375.87 1001.93L1375.87 1040.93L1342.09 1060.43L1308.32 1040.93L1308.32 1001.93zM1375.87 -12.07L1409.64 7.43L1409.64 46.43L1375.87 65.93L1342.09 46.43L1342.09 7.43zM1375.87 104.93L1409.64 124.43L1409.64 163.43L1375.87 182.93L1342.09 163.43L1342.09 124.43zM1409.64 163.43L1443.42 182.93L1443.42 221.93L1409.64 241.43L1375.87 221.93L1375.87 182.93zM1375.87 455.93L1409.64 475.43L1409.64 514.43L1375.87 533.93L1342.09 514.43L1342.09 475.43zM1409.64 514.43L1443.42 533.93L1443.42 572.93L1409.64 592.43L1375.87 572.93L1375.87 533.93zM1409.64 631.43L1443.42 650.93L1443.42 689.93L1409.64 709.43L1375.87 689.93L1375.87 650.93zM1375.87 923.93L1409.64 943.43L1409.64 982.43L1375.87 1001.93L1342.09 982.43L1342.09 943.43zM1409.64 982.43L1443.42 1001.93L1443.42 1040.93L1409.64 1060.43L1375.87 1040.93L1375.87 1001.93zM1443.42 -12.07L1477.2 7.43L1477.2 46.43L1443.42 65.93L1409.64 46.43L1409.64 7.43zM1477.2 46.43L1510.97 65.93L1510.97 104.93L1477.2 124.43L1443.42 104.93L1443.42 65.93zM1443.42 104.93L1477.2 124.43L1477.2 163.43L1443.42 182.93L1409.64 163.43L1409.64 124.43zM1443.42 221.93L1477.2 241.43L1477.2 280.43L1443.42 299.93L1409.64 280.43L1409.64 241.43zM1477.2 280.43L1510.97 299.93L1510.97 338.93L1477.2 358.43L1443.42 338.93L1443.42 299.93zM1443.42 338.93L1477.2 358.43L1477.2 397.43L1443.42 416.93L1409.64 397.43L1409.64 358.43zM1443.42 455.93L1477.2 475.43L1477.2 514.43L1443.42 533.93L1409.64 514.43L1409.64 475.43zM1477.2 514.43L1510.97 533.93L1510.97 572.93L1477.2 592.43L1443.42 572.93L1443.42 533.93zM1443.42 572.93L1477.2 592.43L1477.2 631.43L1443.42 650.93L1409.64 631.43L1409.64 592.43zM1477.2 631.43L1510.97 650.93L1510.97 689.93L1477.2 709.43L1443.42 689.93L1443.42 650.93zM1477.2 748.43L1510.97 767.93L1510.97 806.93L1477.2 826.43L1443.42 806.93L1443.42 767.93zM1477.2 865.43L1510.97 884.93L1510.97 923.93L1477.2 943.43L1443.42 923.93L1443.42 884.93zM1477.2 982.43L1510.97 1001.93L1510.97 1040.93L1477.2 1060.43L1443.42 1040.93L1443.42 1001.93z" stroke="#03305d" stroke-width="2"></path><path d="M20.93 -12.07 a3.9 3.9 0 1 0 7.8 0 a3.9 3.9 0 1 0 -7.8 0zM54.71 7.43 a3.9 3.9 0 1 0 7.8 0 a3.9 3.9 0 1 0 -7.8 0zM54.71 46.43 a3.9 3.9 0 1 0 7.8 0 a3.9 3.9 0 1 0 -7.8 0zM20.93 65.93 a3.9 3.9 0 1 0 7.8 0 a3.9 3.9 0 1 0 -7.8 0zM-12.85 46.43 a3.9 3.9 0 1 0 7.8 0 a3.9 3.9 0 1 0 -7.8 0zM-12.85 7.43 a3.9 3.9 0 1 0 7.8 0 a3.9 3.9 0 1 0 -7.8 0zM88.48 65.93 a3.9 3.9 0 1 0 7.8 0 a3.9 3.9 0 1 0 -7.8 0zM88.48 104.93 a3.9 3.9 0 1 0 7.8 0 a3.9 3.9 0 1 0 -7.8 0zM54.71 124.43 a3.9 3.9 0 1 0 7.8 0 a3.9 3.9 0 1 0 -7.8 0zM20.93 104.93 a3.9 3.9 0 1 0 7.8 0 a3.9 3.9 0 1 0 -7.8 0zM54.71 163.43 a3.9 3.9 0 1 0 7.8 0 a3.9 3.9 0 1 0 -7.8 0zM88.48 182.93 a3.9 3.9 0 1 0 7.8 0 a3.9 3.9 0 1 0 -7.8 0zM88.48 221.93 a3.9 3.9 0 1 0 7.8 0 a3.9 3.9 0 1 0 -7.8 0zM54.71 241.43 a3.9 3.9 0 1 0 7.8 0 a3.9 3.9 0 1 0 -7.8 0zM20.93 221.93 a3.9 3.9 0 1 0 7.8 0 a3.9 3.9 0 1 0 -7.8 0zM20.93 182.93 a3.9 3.9 0 1 0 7.8 0 a3.9 3.9 0 1 0 -7.8 0zM54.71 280.43 a3.9 3.9 0 1 0 7.8 0 a3.9 3.9 0 1 0 -7.8 0zM88.48 299.93 a3.9 3.9 0 1 0 7.8 0 a3.9 3.9 0 1 0 -7.8 0zM88.48 338.93 a3.9 3.9 0 1 0 7.8 0 a3.9 3.9 0 1 0 -7.8 0zM54.71 358.43 a3.9 3.9 0 1 0 7.8 0 a3.9 3.9 0 1 0 -7.8 0zM20.93 338.93 a3.9 3.9 0 1 0 7.8 0 a3.9 3.9 0 1 0 -7.8 0zM20.93 299.93 a3.9 3.9 0 1 0 7.8 0 a3.9 3.9 0 1 0 -7.8 0zM54.71 397.43 a3.9 3.9 0 1 0 7.8 0 a3.9 3.9 0 1 0 -7.8 0zM20.93 416.93 a3.9 3.9 0 1 0 7.8 0 a3.9 3.9 0 1 0 -7.8 0zM-12.85 397.43 a3.9 3.9 0 1 0 7.8 0 a3.9 3.9 0 1 0 -7.8 0zM-12.85 358.43 a3.9 3.9 0 1 0 7.8 0 a3.9 3.9 0 1 0 -7.8 0zM54.71 631.43 a3.9 3.9 0 1 0 7.8 0 a3.9 3.9 0 1 0 -7.8 0zM88.48 650.93 a3.9 3.9 0 1 0 7.8 0 a3.9 3.9 0 1 0 -7.8 0zM88.48 689.93 a3.9 3.9 0 1 0 7.8 0 a3.9 3.9 0 1 0 -7.8 0zM54.71 709.43 a3.9 3.9 0 1 0 7.8 0 a3.9 3.9 0 1 0 -7.8 0zM20.93 689.93 a3.9 3.9 0 1 0 7.8 0 a3.9 3.9 0 1 0 -7.8 0zM20.93 650.93 a3.9 3.9 0 1 0 7.8 0 a3.9 3.9 0 1 0 -7.8 0zM20.93 806.93 a3.9 3.9 0 1 0 7.8 0 a3.9 3.9 0 1 0 -7.8 0zM54.71 826.43 a3.9 3.9 0 1 0 7.8 0 a3.9 3.9 0 1 0 -7.8 0zM54.71 865.43 a3.9 3.9 0 1 0 7.8 0 a3.9 3.9 0 1 0 -7.8 0zM20.93 884.93 a3.9 3.9 0 1 0 7.8 0 a3.9 3.9 0 1 0 -7.8 0zM-12.85 865.43 a3.9 3.9 0 1 0 7.8 0 a3.9 3.9 0 1 0 -7.8 0zM-12.85 826.43 a3.9 3.9 0 1 0 7.8 0 a3.9 3.9 0 1 0 -7.8 0zM20.93 923.93 a3.9 3.9 0 1 0 7.8 0 a3.9 3.9 0 1 0 -7.8 0zM54.71 943.43 a3.9 3.9 0 1 0 7.8 0 a3.9 3.9 0 1 0 -7.8 0zM54.71 982.43 a3.9 3.9 0 1 0 7.8 0 a3.9 3.9 0 1 0 -7.8 0zM20.93 1001.93 a3.9 3.9 0 1 0 7.8 0 a3.9 3.9 0 1 0 -7.8 0zM-12.85 982.43 a3.9 3.9 0 1 0 7.8 0 a3.9 3.9 0 1 0 -7.8 0zM-12.85 943.43 a3.9 3.9 0 1 0 7.8 0 a3.9 3.9 0 1 0 -7.8 0zM88.48 1001.93 a3.9 3.9 0 1 0 7.8 0 a3.9 3.9 0 1 0 -7.8 0zM88.48 1040.93 a3.9 3.9 0 1 0 7.8 0 a3.9 3.9 0 1 0 -7.8 0zM54.71 1060.43 a3.9 3.9 0 1 0 7.8 0 a3.9 3.9 0 1 0 -7.8 0zM20.93 1040.93 a3.9 3.9 0 1 0 7.8 0 a3.9 3.9 0 1 0 -7.8 0zM88.48 -12.07 a3.9 3.9 0 1 0 7.8 0 a3.9 3.9 0 1 0 -7.8 0zM122.26 7.43 a3.9 3.9 0 1 0 7.8 0 a3.9 3.9 0 1 0 -7.8 0zM122.26 46.43 a3.9 3.9 0 1 0 7.8 0 a3.9 3.9 0 1 0 -7.8 0zM156.03 65.93 a3.9 3.9 0 1 0 7.8 0 a3.9 3.9 0 1 0 -7.8 0zM156.03 104.93 a3.9 3.9 0 1 0 7.8 0 a3.9 3.9 0 1 0 -7.8 0zM122.26 124.43 a3.9 3.9 0 1 0 7.8 0 a3.9 3.9 0 1 0 -7.8 0zM122.26 163.43 a3.9 3.9 0 1 0 7.8 0 a3.9 3.9 0 1 0 -7.8 0zM156.03 182.93 a3.9 3.9 0 1 0 7.8 0 a3.9 3.9 0 1 0 -7.8 0zM156.03 221.93 a3.9 3.9 0 1 0 7.8 0 a3.9 3.9 0 1 0 -7.8 0zM122.26 241.43 a3.9 3.9 0 1 0 7.8 0 a3.9 3.9 0 1 0 -7.8 0zM122.26 280.43 a3.9 3.9 0 1 0 7.8 0 a3.9 3.9 0 1 0 -7.8 0zM156.03 299.93 a3.9 3.9 0 1 0 7.8 0 a3.9 3.9 0 1 0 -7.8 0zM156.03 338.93 a3.9 3.9 0 1 0 7.8 0 a3.9 3.9 0 1 0 -7.8 0zM122.26 358.43 a3.9 3.9 0 1 0 7.8 0 a3.9 3.9 0 1 0 -7.8 0zM122.26 397.43 a3.9 3.9 0 1 0 7.8 0 a3.9 3.9 0 1 0 -7.8 0zM88.48 416.93 a3.9 3.9 0 1 0 7.8 0 a3.9 3.9 0 1 0 -7.8 0zM122.26 514.43 a3.9 3.9 0 1 0 7.8 0 a3.9 3.9 0 1 0 -7.8 0zM156.03 533.93 a3.9 3.9 0 1 0 7.8 0 a3.9 3.9 0 1 0 -7.8 0zM156.03 572.93 a3.9 3.9 0 1 0 7.8 0 a3.9 3.9 0 1 0 -7.8 0zM122.26 592.43 a3.9 3.9 0 1 0 7.8 0 a3.9 3.9 0 1 0 -7.8 0zM88.48 572.93 a3.9 3.9 0 1 0 7.8 0 a3.9 3.9 0 1 0 -7.8 0zM88.48 533.93 a3.9 3.9 0 1 0 7.8 0 a3.9 3.9 0 1 0 -7.8 0zM122.26 709.43 a3.9 3.9 0 1 0 7.8 0 a3.9 3.9 0 1 0 -7.8 0zM122.26 748.43 a3.9 3.9 0 1 0 7.8 0 a3.9 3.9 0 1 0 -7.8 0zM88.48 767.93 a3.9 3.9 0 1 0 7.8 0 a3.9 3.9 0 1 0 -7.8 0zM54.71 748.43 a3.9 3.9 0 1 0 7.8 0 a3.9 3.9 0 1 0 -7.8 0zM156.03 767.93 a3.9 3.9 0 1 0 7.8 0 a3.9 3.9 0 1 0 -7.8 0zM156.03 806.93 a3.9 3.9 0 1 0 7.8 0 a3.9 3.9 0 1 0 -7.8 0zM122.26 826.43 a3.9 3.9 0 1 0 7.8 0 a3.9 3.9 0 1 0 -7.8 0zM88.48 806.93 a3.9 3.9 0 1 0 7.8 0 a3.9 3.9 0 1 0 -7.8 0zM88.48 923.93 a3.9 3.9 0 1 0 7.8 0 a3.9 3.9 0 1 0 -7.8 0zM122.26 943.43 a3.9 3.9 0 1 0 7.8 0 a3.9 3.9 0 1 0 -7.8 0zM122.26 982.43 a3.9 3.9 0 1 0 7.8 0 a3.9 3.9 0 1 0 -7.8 0zM156.03 -12.07 a3.9 3.9 0 1 0 7.8 0 a3.9 3.9 0 1 0 -7.8 0zM189.81 7.43 a3.9 3.9 0 1 0 7.8 0 a3.9 3.9 0 1 0 -7.8 0zM189.81 46.43 a3.9 3.9 0 1 0 7.8 0 a3.9 3.9 0 1 0 -7.8 0zM223.59 65.93 a3.9 3.9 0 1 0 7.8 0 a3.9 3.9 0 1 0 -7.8 0zM223.59 104.93 a3.9 3.9 0 1 0 7.8 0 a3.9 3.9 0 1 0 -7.8 0zM189.81 124.43 a3.9 3.9 0 1 0 7.8 0 a3.9 3.9 0 1 0 -7.8 0zM189.81 163.43 a3.9 3.9 0 1 0 7.8 0 a3.9 3.9 0 1 0 -7.8 0zM189.81 241.43 a3.9 3.9 0 1 0 7.8 0 a3.9 3.9 0 1 0 -7.8 0zM189.81 280.43 a3.9 3.9 0 1 0 7.8 0 a3.9 3.9 0 1 0 -7.8 0zM189.81 358.43 a3.9 3.9 0 1 0 7.8 0 a3.9 3.9 0 1 0 -7.8 0zM189.81 397.43 a3.9 3.9 0 1 0 7.8 0 a3.9 3.9 0 1 0 -7.8 0zM156.03 416.93 a3.9 3.9 0 1 0 7.8 0 a3.9 3.9 0 1 0 -7.8 0zM189.81 592.43 a3.9 3.9 0 1 0 7.8 0 a3.9 3.9 0 1 0 -7.8 0zM189.81 631.43 a3.9 3.9 0 1 0 7.8 0 a3.9 3.9 0 1 0 -7.8 0zM156.03 650.93 a3.9 3.9 0 1 0 7.8 0 a3.9 3.9 0 1 0 -7.8 0zM122.26 631.43 a3.9 3.9 0 1 0 7.8 0 a3.9 3.9 0 1 0 -7.8 0zM156.03 689.93 a3.9 3.9 0 1 0 7.8 0 a3.9 3.9 0 1 0 -7.8 0zM189.81 709.43 a3.9 3.9 0 1 0 7.8 0 a3.9 3.9 0 1 0 -7.8 0zM189.81 748.43 a3.9 3.9 0 1 0 7.8 0 a3.9 3.9 0 1 0 -7.8 0zM156.03 923.93 a3.9 3.9 0 1 0 7.8 0 a3.9 3.9 0 1 0 -7.8 0zM189.81 943.43 a3.9 3.9 0 1 0 7.8 0 a3.9 3.9 0 1 0 -7.8 0zM189.81 982.43 a3.9 3.9 0 1 0 7.8 0 a3.9 3.9 0 1 0 -7.8 0zM156.03 1001.93 a3.9 3.9 0 1 0 7.8 0 a3.9 3.9 0 1 0 -7.8 0zM223.59 338.93 a3.9 3.9 0 1 0 7.8 0 a3.9 3.9 0 1 0 -7.8 0zM257.36 358.43 a3.9 3.9 0 1 0 7.8 0 a3.9 3.9 0 1 0 -7.8 0zM257.36 397.43 a3.9 3.9 0 1 0 7.8 0 a3.9 3.9 0 1 0 -7.8 0zM223.59 416.93 a3.9 3.9 0 1 0 7.8 0 a3.9 3.9 0 1 0 -7.8 0zM223.59 455.93 a3.9 3.9 0 1 0 7.8 0 a3.9 3.9 0 1 0 -7.8 0zM257.36 475.43 a3.9 3.9 0 1 0 7.8 0 a3.9 3.9 0 1 0 -7.8 0zM257.36 514.43 a3.9 3.9 0 1 0 7.8 0 a3.9 3.9 0 1 0 -7.8 0zM223.59 533.93 a3.9 3.9 0 1 0 7.8 0 a3.9 3.9 0 1 0 -7.8 0zM189.81 514.43 a3.9 3.9 0 1 0 7.8 0 a3.9 3.9 0 1 0 -7.8 0zM189.81 475.43 a3.9 3.9 0 1 0 7.8 0 a3.9 3.9 0 1 0 -7.8 0zM223.59 572.93 a3.9 3.9 0 1 0 7.8 0 a3.9 3.9 0 1 0 -7.8 0zM257.36 592.43 a3.9 3.9 0 1 0 7.8 0 a3.9 3.9 0 1 0 -7.8 0zM257.36 631.43 a3.9 3.9 0 1 0 7.8 0 a3.9 3.9 0 1 0 -7.8 0zM223.59 650.93 a3.9 3.9 0 1 0 7.8 0 a3.9 3.9 0 1 0 -7.8 0zM291.14 650.93 a3.9 3.9 0 1 0 7.8 0 a3.9 3.9 0 1 0 -7.8 0zM291.14 689.93 a3.9 3.9 0 1 0 7.8 0 a3.9 3.9 0 1 0 -7.8 0zM257.36 709.43 a3.9 3.9 0 1 0 7.8 0 a3.9 3.9 0 1 0 -7.8 0zM223.59 689.93 a3.9 3.9 0 1 0 7.8 0 a3.9 3.9 0 1 0 -7.8 0zM257.36 748.43 a3.9 3.9 0 1 0 7.8 0 a3.9 3.9 0 1 0 -7.8 0zM223.59 767.93 a3.9 3.9 0 1 0 7.8 0 a3.9 3.9 0 1 0 -7.8 0zM291.14 767.93 a3.9 3.9 0 1 0 7.8 0 a3.9 3.9 0 1 0 -7.8 0zM291.14 806.93 a3.9 3.9 0 1 0 7.8 0 a3.9 3.9 0 1 0 -7.8 0zM257.36 826.43 a3.9 3.9 0 1 0 7.8 0 a3.9 3.9 0 1 0 -7.8 0zM223.59 806.93 a3.9 3.9 0 1 0 7.8 0 a3.9 3.9 0 1 0 -7.8 0zM257.36 865.43 a3.9 3.9 0 1 0 7.8 0 a3.9 3.9 0 1 0 -7.8 0zM291.14 884.93 a3.9 3.9 0 1 0 7.8 0 a3.9 3.9 0 1 0 -7.8 0zM291.14 923.93 a3.9 3.9 0 1 0 7.8 0 a3.9 3.9 0 1 0 -7.8 0zM257.36 943.43 a3.9 3.9 0 1 0 7.8 0 a3.9 3.9 0 1 0 -7.8 0zM223.59 923.93 a3.9 3.9 0 1 0 7.8 0 a3.9 3.9 0 1 0 -7.8 0zM223.59 884.93 a3.9 3.9 0 1 0 7.8 0 a3.9 3.9 0 1 0 -7.8 0zM324.91 46.43 a3.9 3.9 0 1 0 7.8 0 a3.9 3.9 0 1 0 -7.8 0zM358.69 65.93 a3.9 3.9 0 1 0 7.8 0 a3.9 3.9 0 1 0 -7.8 0zM358.69 104.93 a3.9 3.9 0 1 0 7.8 0 a3.9 3.9 0 1 0 -7.8 0zM324.91 124.43 a3.9 3.9 0 1 0 7.8 0 a3.9 3.9 0 1 0 -7.8 0zM291.14 104.93 a3.9 3.9 0 1 0 7.8 0 a3.9 3.9 0 1 0 -7.8 0zM291.14 65.93 a3.9 3.9 0 1 0 7.8 0 a3.9 3.9 0 1 0 -7.8 0zM324.91 163.43 a3.9 3.9 0 1 0 7.8 0 a3.9 3.9 0 1 0 -7.8 0zM291.14 182.93 a3.9 3.9 0 1 0 7.8 0 a3.9 3.9 0 1 0 -7.8 0zM257.36 163.43 a3.9 3.9 0 1 0 7.8 0 a3.9 3.9 0 1 0 -7.8 0zM257.36 124.43 a3.9 3.9 0 1 0 7.8 0 a3.9 3.9 0 1 0 -7.8 0zM358.69 182.93 a3.9 3.9 0 1 0 7.8 0 a3.9 3.9 0 1 0 -7.8 0zM358.69 221.93 a3.9 3.9 0 1 0 7.8 0 a3.9 3.9 0 1 0 -7.8 0zM324.91 241.43 a3.9 3.9 0 1 0 7.8 0 a3.9 3.9 0 1 0 -7.8 0zM291.14 221.93 a3.9 3.9 0 1 0 7.8 0 a3.9 3.9 0 1 0 -7.8 0zM324.91 397.43 a3.9 3.9 0 1 0 7.8 0 a3.9 3.9 0 1 0 -7.8 0zM358.69 416.93 a3.9 3.9 0 1 0 7.8 0 a3.9 3.9 0 1 0 -7.8 0zM358.69 455.93 a3.9 3.9 0 1 0 7.8 0 a3.9 3.9 0 1 0 -7.8 0zM324.91 475.43 a3.9 3.9 0 1 0 7.8 0 a3.9 3.9 0 1 0 -7.8 0zM291.14 455.93 a3.9 3.9 0 1 0 7.8 0 a3.9 3.9 0 1 0 -7.8 0zM291.14 416.93 a3.9 3.9 0 1 0 7.8 0 a3.9 3.9 0 1 0 -7.8 0zM324.91 514.43 a3.9 3.9 0 1 0 7.8 0 a3.9 3.9 0 1 0 -7.8 0zM358.69 533.93 a3.9 3.9 0 1 0 7.8 0 a3.9 3.9 0 1 0 -7.8 0zM358.69 572.93 a3.9 3.9 0 1 0 7.8 0 a3.9 3.9 0 1 0 -7.8 0zM324.91 592.43 a3.9 3.9 0 1 0 7.8 0 a3.9 3.9 0 1 0 -7.8 0zM291.14 572.93 a3.9 3.9 0 1 0 7.8 0 a3.9 3.9 0 1 0 -7.8 0zM291.14 533.93 a3.9 3.9 0 1 0 7.8 0 a3.9 3.9 0 1 0 -7.8 0zM324.91 631.43 a3.9 3.9 0 1 0 7.8 0 a3.9 3.9 0 1 0 -7.8 0zM324.91 865.43 a3.9 3.9 0 1 0 7.8 0 a3.9 3.9 0 1 0 -7.8 0zM358.69 884.93 a3.9 3.9 0 1 0 7.8 0 a3.9 3.9 0 1 0 -7.8 0zM358.69 923.93 a3.9 3.9 0 1 0 7.8 0 a3.9 3.9 0 1 0 -7.8 0zM324.91 943.43 a3.9 3.9 0 1 0 7.8 0 a3.9 3.9 0 1 0 -7.8 0zM324.91 982.43 a3.9 3.9 0 1 0 7.8 0 a3.9 3.9 0 1 0 -7.8 0zM291.14 1001.93 a3.9 3.9 0 1 0 7.8 0 a3.9 3.9 0 1 0 -7.8 0zM257.36 982.43 a3.9 3.9 0 1 0 7.8 0 a3.9 3.9 0 1 0 -7.8 0zM358.69 1001.93 a3.9 3.9 0 1 0 7.8 0 a3.9 3.9 0 1 0 -7.8 0zM358.69 1040.93 a3.9 3.9 0 1 0 7.8 0 a3.9 3.9 0 1 0 -7.8 0zM324.91 1060.43 a3.9 3.9 0 1 0 7.8 0 a3.9 3.9 0 1 0 -7.8 0zM291.14 1040.93 a3.9 3.9 0 1 0 7.8 0 a3.9 3.9 0 1 0 -7.8 0zM392.47 46.43 a3.9 3.9 0 1 0 7.8 0 a3.9 3.9 0 1 0 -7.8 0zM426.24 65.93 a3.9 3.9 0 1 0 7.8 0 a3.9 3.9 0 1 0 -7.8 0zM426.24 104.93 a3.9 3.9 0 1 0 7.8 0 a3.9 3.9 0 1 0 -7.8 0zM392.47 124.43 a3.9 3.9 0 1 0 7.8 0 a3.9 3.9 0 1 0 -7.8 0zM392.47 241.43 a3.9 3.9 0 1 0 7.8 0 a3.9 3.9 0 1 0 -7.8 0zM392.47 280.43 a3.9 3.9 0 1 0 7.8 0 a3.9 3.9 0 1 0 -7.8 0zM358.69 299.93 a3.9 3.9 0 1 0 7.8 0 a3.9 3.9 0 1 0 -7.8 0zM324.91 280.43 a3.9 3.9 0 1 0 7.8 0 a3.9 3.9 0 1 0 -7.8 0zM392.47 397.43 a3.9 3.9 0 1 0 7.8 0 a3.9 3.9 0 1 0 -7.8 0zM426.24 416.93 a3.9 3.9 0 1 0 7.8 0 a3.9 3.9 0 1 0 -7.8 0zM426.24 455.93 a3.9 3.9 0 1 0 7.8 0 a3.9 3.9 0 1 0 -7.8 0zM392.47 475.43 a3.9 3.9 0 1 0 7.8 0 a3.9 3.9 0 1 0 -7.8 0zM392.47 631.43 a3.9 3.9 0 1 0 7.8 0 a3.9 3.9 0 1 0 -7.8 0zM426.24 650.93 a3.9 3.9 0 1 0 7.8 0 a3.9 3.9 0 1 0 -7.8 0zM426.24 689.93 a3.9 3.9 0 1 0 7.8 0 a3.9 3.9 0 1 0 -7.8 0zM392.47 709.43 a3.9 3.9 0 1 0 7.8 0 a3.9 3.9 0 1 0 -7.8 0zM358.69 689.93 a3.9 3.9 0 1 0 7.8 0 a3.9 3.9 0 1 0 -7.8 0zM358.69 650.93 a3.9 3.9 0 1 0 7.8 0 a3.9 3.9 0 1 0 -7.8 0zM392.47 748.43 a3.9 3.9 0 1 0 7.8 0 a3.9 3.9 0 1 0 -7.8 0zM426.24 767.93 a3.9 3.9 0 1 0 7.8 0 a3.9 3.9 0 1 0 -7.8 0zM426.24 806.93 a3.9 3.9 0 1 0 7.8 0 a3.9 3.9 0 1 0 -7.8 0zM392.47 826.43 a3.9 3.9 0 1 0 7.8 0 a3.9 3.9 0 1 0 -7.8 0zM358.69 806.93 a3.9 3.9 0 1 0 7.8 0 a3.9 3.9 0 1 0 -7.8 0zM358.69 767.93 a3.9 3.9 0 1 0 7.8 0 a3.9 3.9 0 1 0 -7.8 0zM392.47 865.43 a3.9 3.9 0 1 0 7.8 0 a3.9 3.9 0 1 0 -7.8 0zM324.91 826.43 a3.9 3.9 0 1 0 7.8 0 a3.9 3.9 0 1 0 -7.8 0zM426.24 884.93 a3.9 3.9 0 1 0 7.8 0 a3.9 3.9 0 1 0 -7.8 0zM426.24 923.93 a3.9 3.9 0 1 0 7.8 0 a3.9 3.9 0 1 0 -7.8 0zM392.47 943.43 a3.9 3.9 0 1 0 7.8 0 a3.9 3.9 0 1 0 -7.8 0zM460.02 46.43 a3.9 3.9 0 1 0 7.8 0 a3.9 3.9 0 1 0 -7.8 0zM493.79 65.93 a3.9 3.9 0 1 0 7.8 0 a3.9 3.9 0 1 0 -7.8 0zM493.79 104.93 a3.9 3.9 0 1 0 7.8 0 a3.9 3.9 0 1 0 -7.8 0zM460.02 124.43 a3.9 3.9 0 1 0 7.8 0 a3.9 3.9 0 1 0 -7.8 0zM460.02 163.43 a3.9 3.9 0 1 0 7.8 0 a3.9 3.9 0 1 0 -7.8 0zM493.79 182.93 a3.9 3.9 0 1 0 7.8 0 a3.9 3.9 0 1 0 -7.8 0zM493.79 221.93 a3.9 3.9 0 1 0 7.8 0 a3.9 3.9 0 1 0 -7.8 0zM460.02 241.43 a3.9 3.9 0 1 0 7.8 0 a3.9 3.9 0 1 0 -7.8 0zM426.24 221.93 a3.9 3.9 0 1 0 7.8 0 a3.9 3.9 0 1 0 -7.8 0zM426.24 182.93 a3.9 3.9 0 1 0 7.8 0 a3.9 3.9 0 1 0 -7.8 0zM460.02 280.43 a3.9 3.9 0 1 0 7.8 0 a3.9 3.9 0 1 0 -7.8 0zM426.24 299.93 a3.9 3.9 0 1 0 7.8 0 a3.9 3.9 0 1 0 -7.8 0zM493.79 299.93 a3.9 3.9 0 1 0 7.8 0 a3.9 3.9 0 1 0 -7.8 0zM493.79 338.93 a3.9 3.9 0 1 0 7.8 0 a3.9 3.9 0 1 0 -7.8 0zM460.02 358.43 a3.9 3.9 0 1 0 7.8 0 a3.9 3.9 0 1 0 -7.8 0zM426.24 338.93 a3.9 3.9 0 1 0 7.8 0 a3.9 3.9 0 1 0 -7.8 0zM460.02 397.43 a3.9 3.9 0 1 0 7.8 0 a3.9 3.9 0 1 0 -7.8 0zM392.47 358.43 a3.9 3.9 0 1 0 7.8 0 a3.9 3.9 0 1 0 -7.8 0zM460.02 475.43 a3.9 3.9 0 1 0 7.8 0 a3.9 3.9 0 1 0 -7.8 0zM460.02 514.43 a3.9 3.9 0 1 0 7.8 0 a3.9 3.9 0 1 0 -7.8 0zM426.24 533.93 a3.9 3.9 0 1 0 7.8 0 a3.9 3.9 0 1 0 -7.8 0zM392.47 514.43 a3.9 3.9 0 1 0 7.8 0 a3.9 3.9 0 1 0 -7.8 0zM493.79 533.93 a3.9 3.9 0 1 0 7.8 0 a3.9 3.9 0 1 0 -7.8 0zM493.79 572.93 a3.9 3.9 0 1 0 7.8 0 a3.9 3.9 0 1 0 -7.8 0zM460.02 592.43 a3.9 3.9 0 1 0 7.8 0 a3.9 3.9 0 1 0 -7.8 0zM426.24 572.93 a3.9 3.9 0 1 0 7.8 0 a3.9 3.9 0 1 0 -7.8 0zM460.02 631.43 a3.9 3.9 0 1 0 7.8 0 a3.9 3.9 0 1 0 -7.8 0zM493.79 650.93 a3.9 3.9 0 1 0 7.8 0 a3.9 3.9 0 1 0 -7.8 0zM493.79 689.93 a3.9 3.9 0 1 0 7.8 0 a3.9 3.9 0 1 0 -7.8 0zM460.02 709.43 a3.9 3.9 0 1 0 7.8 0 a3.9 3.9 0 1 0 -7.8 0zM460.02 748.43 a3.9 3.9 0 1 0 7.8 0 a3.9 3.9 0 1 0 -7.8 0zM460.02 826.43 a3.9 3.9 0 1 0 7.8 0 a3.9 3.9 0 1 0 -7.8 0zM460.02 865.43 a3.9 3.9 0 1 0 7.8 0 a3.9 3.9 0 1 0 -7.8 0zM460.02 943.43 a3.9 3.9 0 1 0 7.8 0 a3.9 3.9 0 1 0 -7.8 0zM460.02 982.43 a3.9 3.9 0 1 0 7.8 0 a3.9 3.9 0 1 0 -7.8 0zM426.24 1001.93 a3.9 3.9 0 1 0 7.8 0 a3.9 3.9 0 1 0 -7.8 0zM392.47 982.43 a3.9 3.9 0 1 0 7.8 0 a3.9 3.9 0 1 0 -7.8 0zM527.57 46.43 a3.9 3.9 0 1 0 7.8 0 a3.9 3.9 0 1 0 -7.8 0zM561.35 65.93 a3.9 3.9 0 1 0 7.8 0 a3.9 3.9 0 1 0 -7.8 0zM561.35 104.93 a3.9 3.9 0 1 0 7.8 0 a3.9 3.9 0 1 0 -7.8 0zM527.57 124.43 a3.9 3.9 0 1 0 7.8 0 a3.9 3.9 0 1 0 -7.8 0zM527.57 241.43 a3.9 3.9 0 1 0 7.8 0 a3.9 3.9 0 1 0 -7.8 0zM527.57 280.43 a3.9 3.9 0 1 0 7.8 0 a3.9 3.9 0 1 0 -7.8 0zM527.57 358.43 a3.9 3.9 0 1 0 7.8 0 a3.9 3.9 0 1 0 -7.8 0zM527.57 397.43 a3.9 3.9 0 1 0 7.8 0 a3.9 3.9 0 1 0 -7.8 0zM493.79 416.93 a3.9 3.9 0 1 0 7.8 0 a3.9 3.9 0 1 0 -7.8 0zM527.57 592.43 a3.9 3.9 0 1 0 7.8 0 a3.9 3.9 0 1 0 -7.8 0zM527.57 631.43 a3.9 3.9 0 1 0 7.8 0 a3.9 3.9 0 1 0 -7.8 0zM527.57 709.43 a3.9 3.9 0 1 0 7.8 0 a3.9 3.9 0 1 0 -7.8 0zM527.57 748.43 a3.9 3.9 0 1 0 7.8 0 a3.9 3.9 0 1 0 -7.8 0zM493.79 767.93 a3.9 3.9 0 1 0 7.8 0 a3.9 3.9 0 1 0 -7.8 0zM527.57 865.43 a3.9 3.9 0 1 0 7.8 0 a3.9 3.9 0 1 0 -7.8 0zM561.35 884.93 a3.9 3.9 0 1 0 7.8 0 a3.9 3.9 0 1 0 -7.8 0zM561.35 923.93 a3.9 3.9 0 1 0 7.8 0 a3.9 3.9 0 1 0 -7.8 0zM527.57 943.43 a3.9 3.9 0 1 0 7.8 0 a3.9 3.9 0 1 0 -7.8 0zM493.79 923.93 a3.9 3.9 0 1 0 7.8 0 a3.9 3.9 0 1 0 -7.8 0zM493.79 884.93 a3.9 3.9 0 1 0 7.8 0 a3.9 3.9 0 1 0 -7.8 0zM527.57 982.43 a3.9 3.9 0 1 0 7.8 0 a3.9 3.9 0 1 0 -7.8 0zM493.79 1001.93 a3.9 3.9 0 1 0 7.8 0 a3.9 3.9 0 1 0 -7.8 0zM561.35 1001.93 a3.9 3.9 0 1 0 7.8 0 a3.9 3.9 0 1 0 -7.8 0zM561.35 1040.93 a3.9 3.9 0 1 0 7.8 0 a3.9 3.9 0 1 0 -7.8 0zM527.57 1060.43 a3.9 3.9 0 1 0 7.8 0 a3.9 3.9 0 1 0 -7.8 0zM493.79 1040.93 a3.9 3.9 0 1 0 7.8 0 a3.9 3.9 0 1 0 -7.8 0zM561.35 -12.07 a3.9 3.9 0 1 0 7.8 0 a3.9 3.9 0 1 0 -7.8 0zM595.12 7.43 a3.9 3.9 0 1 0 7.8 0 a3.9 3.9 0 1 0 -7.8 0zM595.12 46.43 a3.9 3.9 0 1 0 7.8 0 a3.9 3.9 0 1 0 -7.8 0zM527.57 7.43 a3.9 3.9 0 1 0 7.8 0 a3.9 3.9 0 1 0 -7.8 0zM595.12 163.43 a3.9 3.9 0 1 0 7.8 0 a3.9 3.9 0 1 0 -7.8 0zM628.9 182.93 a3.9 3.9 0 1 0 7.8 0 a3.9 3.9 0 1 0 -7.8 0zM628.9 221.93 a3.9 3.9 0 1 0 7.8 0 a3.9 3.9 0 1 0 -7.8 0zM595.12 241.43 a3.9 3.9 0 1 0 7.8 0 a3.9 3.9 0 1 0 -7.8 0zM561.35 221.93 a3.9 3.9 0 1 0 7.8 0 a3.9 3.9 0 1 0 -7.8 0zM561.35 182.93 a3.9 3.9 0 1 0 7.8 0 a3.9 3.9 0 1 0 -7.8 0zM595.12 280.43 a3.9 3.9 0 1 0 7.8 0 a3.9 3.9 0 1 0 -7.8 0zM561.35 299.93 a3.9 3.9 0 1 0 7.8 0 a3.9 3.9 0 1 0 -7.8 0zM628.9 299.93 a3.9 3.9 0 1 0 7.8 0 a3.9 3.9 0 1 0 -7.8 0zM628.9 338.93 a3.9 3.9 0 1 0 7.8 0 a3.9 3.9 0 1 0 -7.8 0zM595.12 358.43 a3.9 3.9 0 1 0 7.8 0 a3.9 3.9 0 1 0 -7.8 0zM561.35 338.93 a3.9 3.9 0 1 0 7.8 0 a3.9 3.9 0 1 0 -7.8 0zM595.12 397.43 a3.9 3.9 0 1 0 7.8 0 a3.9 3.9 0 1 0 -7.8 0zM628.9 416.93 a3.9 3.9 0 1 0 7.8 0 a3.9 3.9 0 1 0 -7.8 0zM628.9 455.93 a3.9 3.9 0 1 0 7.8 0 a3.9 3.9 0 1 0 -7.8 0zM595.12 475.43 a3.9 3.9 0 1 0 7.8 0 a3.9 3.9 0 1 0 -7.8 0zM561.35 455.93 a3.9 3.9 0 1 0 7.8 0 a3.9 3.9 0 1 0 -7.8 0zM561.35 416.93 a3.9 3.9 0 1 0 7.8 0 a3.9 3.9 0 1 0 -7.8 0zM561.35 572.93 a3.9 3.9 0 1 0 7.8 0 a3.9 3.9 0 1 0 -7.8 0zM595.12 592.43 a3.9 3.9 0 1 0 7.8 0 a3.9 3.9 0 1 0 -7.8 0zM595.12 631.43 a3.9 3.9 0 1 0 7.8 0 a3.9 3.9 0 1 0 -7.8 0zM561.35 650.93 a3.9 3.9 0 1 0 7.8 0 a3.9 3.9 0 1 0 -7.8 0zM561.35 806.93 a3.9 3.9 0 1 0 7.8 0 a3.9 3.9 0 1 0 -7.8 0zM595.12 826.43 a3.9 3.9 0 1 0 7.8 0 a3.9 3.9 0 1 0 -7.8 0zM595.12 865.43 a3.9 3.9 0 1 0 7.8 0 a3.9 3.9 0 1 0 -7.8 0zM527.57 826.43 a3.9 3.9 0 1 0 7.8 0 a3.9 3.9 0 1 0 -7.8 0zM595.12 943.43 a3.9 3.9 0 1 0 7.8 0 a3.9 3.9 0 1 0 -7.8 0zM595.12 982.43 a3.9 3.9 0 1 0 7.8 0 a3.9 3.9 0 1 0 -7.8 0zM628.9 -12.07 a3.9 3.9 0 1 0 7.8 0 a3.9 3.9 0 1 0 -7.8 0zM662.67 7.43 a3.9 3.9 0 1 0 7.8 0 a3.9 3.9 0 1 0 -7.8 0zM662.67 46.43 a3.9 3.9 0 1 0 7.8 0 a3.9 3.9 0 1 0 -7.8 0zM628.9 65.93 a3.9 3.9 0 1 0 7.8 0 a3.9 3.9 0 1 0 -7.8 0zM628.9 104.93 a3.9 3.9 0 1 0 7.8 0 a3.9 3.9 0 1 0 -7.8 0zM662.67 124.43 a3.9 3.9 0 1 0 7.8 0 a3.9 3.9 0 1 0 -7.8 0zM662.67 163.43 a3.9 3.9 0 1 0 7.8 0 a3.9 3.9 0 1 0 -7.8 0zM595.12 124.43 a3.9 3.9 0 1 0 7.8 0 a3.9 3.9 0 1 0 -7.8 0zM662.67 475.43 a3.9 3.9 0 1 0 7.8 0 a3.9 3.9 0 1 0 -7.8 0zM662.67 514.43 a3.9 3.9 0 1 0 7.8 0 a3.9 3.9 0 1 0 -7.8 0zM628.9 533.93 a3.9 3.9 0 1 0 7.8 0 a3.9 3.9 0 1 0 -7.8 0zM595.12 514.43 a3.9 3.9 0 1 0 7.8 0 a3.9 3.9 0 1 0 -7.8 0zM662.67 631.43 a3.9 3.9 0 1 0 7.8 0 a3.9 3.9 0 1 0 -7.8 0zM696.45 650.93 a3.9 3.9 0 1 0 7.8 0 a3.9 3.9 0 1 0 -7.8 0zM696.45 689.93 a3.9 3.9 0 1 0 7.8 0 a3.9 3.9 0 1 0 -7.8 0zM662.67 709.43 a3.9 3.9 0 1 0 7.8 0 a3.9 3.9 0 1 0 -7.8 0zM628.9 689.93 a3.9 3.9 0 1 0 7.8 0 a3.9 3.9 0 1 0 -7.8 0zM628.9 650.93 a3.9 3.9 0 1 0 7.8 0 a3.9 3.9 0 1 0 -7.8 0zM662.67 748.43 a3.9 3.9 0 1 0 7.8 0 a3.9 3.9 0 1 0 -7.8 0zM696.45 767.93 a3.9 3.9 0 1 0 7.8 0 a3.9 3.9 0 1 0 -7.8 0zM696.45 806.93 a3.9 3.9 0 1 0 7.8 0 a3.9 3.9 0 1 0 -7.8 0zM662.67 826.43 a3.9 3.9 0 1 0 7.8 0 a3.9 3.9 0 1 0 -7.8 0zM628.9 806.93 a3.9 3.9 0 1 0 7.8 0 a3.9 3.9 0 1 0 -7.8 0zM628.9 767.93 a3.9 3.9 0 1 0 7.8 0 a3.9 3.9 0 1 0 -7.8 0zM662.67 865.43 a3.9 3.9 0 1 0 7.8 0 a3.9 3.9 0 1 0 -7.8 0zM696.45 884.93 a3.9 3.9 0 1 0 7.8 0 a3.9 3.9 0 1 0 -7.8 0zM696.45 923.93 a3.9 3.9 0 1 0 7.8 0 a3.9 3.9 0 1 0 -7.8 0zM662.67 943.43 a3.9 3.9 0 1 0 7.8 0 a3.9 3.9 0 1 0 -7.8 0zM628.9 923.93 a3.9 3.9 0 1 0 7.8 0 a3.9 3.9 0 1 0 -7.8 0zM628.9 884.93 a3.9 3.9 0 1 0 7.8 0 a3.9 3.9 0 1 0 -7.8 0zM696.45 -12.07 a3.9 3.9 0 1 0 7.8 0 a3.9 3.9 0 1 0 -7.8 0zM730.22 7.43 a3.9 3.9 0 1 0 7.8 0 a3.9 3.9 0 1 0 -7.8 0zM730.22 46.43 a3.9 3.9 0 1 0 7.8 0 a3.9 3.9 0 1 0 -7.8 0zM696.45 65.93 a3.9 3.9 0 1 0 7.8 0 a3.9 3.9 0 1 0 -7.8 0zM696.45 221.93 a3.9 3.9 0 1 0 7.8 0 a3.9 3.9 0 1 0 -7.8 0zM730.22 241.43 a3.9 3.9 0 1 0 7.8 0 a3.9 3.9 0 1 0 -7.8 0zM730.22 280.43 a3.9 3.9 0 1 0 7.8 0 a3.9 3.9 0 1 0 -7.8 0zM696.45 299.93 a3.9 3.9 0 1 0 7.8 0 a3.9 3.9 0 1 0 -7.8 0zM662.67 280.43 a3.9 3.9 0 1 0 7.8 0 a3.9 3.9 0 1 0 -7.8 0zM662.67 241.43 a3.9 3.9 0 1 0 7.8 0 a3.9 3.9 0 1 0 -7.8 0zM764 299.93 a3.9 3.9 0 1 0 7.8 0 a3.9 3.9 0 1 0 -7.8 0zM764 338.93 a3.9 3.9 0 1 0 7.8 0 a3.9 3.9 0 1 0 -7.8 0zM730.22 358.43 a3.9 3.9 0 1 0 7.8 0 a3.9 3.9 0 1 0 -7.8 0zM696.45 338.93 a3.9 3.9 0 1 0 7.8 0 a3.9 3.9 0 1 0 -7.8 0zM730.22 397.43 a3.9 3.9 0 1 0 7.8 0 a3.9 3.9 0 1 0 -7.8 0zM696.45 416.93 a3.9 3.9 0 1 0 7.8 0 a3.9 3.9 0 1 0 -7.8 0zM662.67 397.43 a3.9 3.9 0 1 0 7.8 0 a3.9 3.9 0 1 0 -7.8 0zM662.67 358.43 a3.9 3.9 0 1 0 7.8 0 a3.9 3.9 0 1 0 -7.8 0zM730.22 514.43 a3.9 3.9 0 1 0 7.8 0 a3.9 3.9 0 1 0 -7.8 0zM764 533.93 a3.9 3.9 0 1 0 7.8 0 a3.9 3.9 0 1 0 -7.8 0zM764 572.93 a3.9 3.9 0 1 0 7.8 0 a3.9 3.9 0 1 0 -7.8 0zM730.22 592.43 a3.9 3.9 0 1 0 7.8 0 a3.9 3.9 0 1 0 -7.8 0zM696.45 572.93 a3.9 3.9 0 1 0 7.8 0 a3.9 3.9 0 1 0 -7.8 0zM696.45 533.93 a3.9 3.9 0 1 0 7.8 0 a3.9 3.9 0 1 0 -7.8 0zM730.22 709.43 a3.9 3.9 0 1 0 7.8 0 a3.9 3.9 0 1 0 -7.8 0zM730.22 748.43 a3.9 3.9 0 1 0 7.8 0 a3.9 3.9 0 1 0 -7.8 0zM764 -12.07 a3.9 3.9 0 1 0 7.8 0 a3.9 3.9 0 1 0 -7.8 0zM797.78 7.43 a3.9 3.9 0 1 0 7.8 0 a3.9 3.9 0 1 0 -7.8 0zM797.78 46.43 a3.9 3.9 0 1 0 7.8 0 a3.9 3.9 0 1 0 -7.8 0zM764 65.93 a3.9 3.9 0 1 0 7.8 0 a3.9 3.9 0 1 0 -7.8 0zM764 104.93 a3.9 3.9 0 1 0 7.8 0 a3.9 3.9 0 1 0 -7.8 0zM797.78 124.43 a3.9 3.9 0 1 0 7.8 0 a3.9 3.9 0 1 0 -7.8 0zM797.78 163.43 a3.9 3.9 0 1 0 7.8 0 a3.9 3.9 0 1 0 -7.8 0zM764 182.93 a3.9 3.9 0 1 0 7.8 0 a3.9 3.9 0 1 0 -7.8 0zM730.22 163.43 a3.9 3.9 0 1 0 7.8 0 a3.9 3.9 0 1 0 -7.8 0zM730.22 124.43 a3.9 3.9 0 1 0 7.8 0 a3.9 3.9 0 1 0 -7.8 0zM797.78 280.43 a3.9 3.9 0 1 0 7.8 0 a3.9 3.9 0 1 0 -7.8 0zM831.55 299.93 a3.9 3.9 0 1 0 7.8 0 a3.9 3.9 0 1 0 -7.8 0zM831.55 338.93 a3.9 3.9 0 1 0 7.8 0 a3.9 3.9 0 1 0 -7.8 0zM797.78 358.43 a3.9 3.9 0 1 0 7.8 0 a3.9 3.9 0 1 0 -7.8 0zM764 455.93 a3.9 3.9 0 1 0 7.8 0 a3.9 3.9 0 1 0 -7.8 0zM797.78 475.43 a3.9 3.9 0 1 0 7.8 0 a3.9 3.9 0 1 0 -7.8 0zM797.78 514.43 a3.9 3.9 0 1 0 7.8 0 a3.9 3.9 0 1 0 -7.8 0zM730.22 475.43 a3.9 3.9 0 1 0 7.8 0 a3.9 3.9 0 1 0 -7.8 0zM797.78 592.43 a3.9 3.9 0 1 0 7.8 0 a3.9 3.9 0 1 0 -7.8 0zM797.78 631.43 a3.9 3.9 0 1 0 7.8 0 a3.9 3.9 0 1 0 -7.8 0zM764 650.93 a3.9 3.9 0 1 0 7.8 0 a3.9 3.9 0 1 0 -7.8 0zM730.22 631.43 a3.9 3.9 0 1 0 7.8 0 a3.9 3.9 0 1 0 -7.8 0zM764 806.93 a3.9 3.9 0 1 0 7.8 0 a3.9 3.9 0 1 0 -7.8 0zM797.78 826.43 a3.9 3.9 0 1 0 7.8 0 a3.9 3.9 0 1 0 -7.8 0zM797.78 865.43 a3.9 3.9 0 1 0 7.8 0 a3.9 3.9 0 1 0 -7.8 0zM764 884.93 a3.9 3.9 0 1 0 7.8 0 a3.9 3.9 0 1 0 -7.8 0zM730.22 865.43 a3.9 3.9 0 1 0 7.8 0 a3.9 3.9 0 1 0 -7.8 0zM730.22 826.43 a3.9 3.9 0 1 0 7.8 0 a3.9 3.9 0 1 0 -7.8 0zM831.55 884.93 a3.9 3.9 0 1 0 7.8 0 a3.9 3.9 0 1 0 -7.8 0zM831.55 923.93 a3.9 3.9 0 1 0 7.8 0 a3.9 3.9 0 1 0 -7.8 0zM797.78 943.43 a3.9 3.9 0 1 0 7.8 0 a3.9 3.9 0 1 0 -7.8 0zM764 923.93 a3.9 3.9 0 1 0 7.8 0 a3.9 3.9 0 1 0 -7.8 0zM797.78 982.43 a3.9 3.9 0 1 0 7.8 0 a3.9 3.9 0 1 0 -7.8 0zM831.55 1001.93 a3.9 3.9 0 1 0 7.8 0 a3.9 3.9 0 1 0 -7.8 0zM831.55 1040.93 a3.9 3.9 0 1 0 7.8 0 a3.9 3.9 0 1 0 -7.8 0zM797.78 1060.43 a3.9 3.9 0 1 0 7.8 0 a3.9 3.9 0 1 0 -7.8 0zM764 1040.93 a3.9 3.9 0 1 0 7.8 0 a3.9 3.9 0 1 0 -7.8 0zM764 1001.93 a3.9 3.9 0 1 0 7.8 0 a3.9 3.9 0 1 0 -7.8 0zM831.55 -12.07 a3.9 3.9 0 1 0 7.8 0 a3.9 3.9 0 1 0 -7.8 0zM865.33 7.43 a3.9 3.9 0 1 0 7.8 0 a3.9 3.9 0 1 0 -7.8 0zM865.33 46.43 a3.9 3.9 0 1 0 7.8 0 a3.9 3.9 0 1 0 -7.8 0zM831.55 65.93 a3.9 3.9 0 1 0 7.8 0 a3.9 3.9 0 1 0 -7.8 0zM899.1 65.93 a3.9 3.9 0 1 0 7.8 0 a3.9 3.9 0 1 0 -7.8 0zM899.1 104.93 a3.9 3.9 0 1 0 7.8 0 a3.9 3.9 0 1 0 -7.8 0zM865.33 124.43 a3.9 3.9 0 1 0 7.8 0 a3.9 3.9 0 1 0 -7.8 0zM831.55 104.93 a3.9 3.9 0 1 0 7.8 0 a3.9 3.9 0 1 0 -7.8 0zM865.33 280.43 a3.9 3.9 0 1 0 7.8 0 a3.9 3.9 0 1 0 -7.8 0zM899.1 299.93 a3.9 3.9 0 1 0 7.8 0 a3.9 3.9 0 1 0 -7.8 0zM899.1 338.93 a3.9 3.9 0 1 0 7.8 0 a3.9 3.9 0 1 0 -7.8 0zM865.33 358.43 a3.9 3.9 0 1 0 7.8 0 a3.9 3.9 0 1 0 -7.8 0zM865.33 397.43 a3.9 3.9 0 1 0 7.8 0 a3.9 3.9 0 1 0 -7.8 0zM831.55 416.93 a3.9 3.9 0 1 0 7.8 0 a3.9 3.9 0 1 0 -7.8 0zM797.78 397.43 a3.9 3.9 0 1 0 7.8 0 a3.9 3.9 0 1 0 -7.8 0zM831.55 455.93 a3.9 3.9 0 1 0 7.8 0 a3.9 3.9 0 1 0 -7.8 0zM865.33 475.43 a3.9 3.9 0 1 0 7.8 0 a3.9 3.9 0 1 0 -7.8 0zM865.33 514.43 a3.9 3.9 0 1 0 7.8 0 a3.9 3.9 0 1 0 -7.8 0zM831.55 533.93 a3.9 3.9 0 1 0 7.8 0 a3.9 3.9 0 1 0 -7.8 0zM831.55 572.93 a3.9 3.9 0 1 0 7.8 0 a3.9 3.9 0 1 0 -7.8 0zM865.33 592.43 a3.9 3.9 0 1 0 7.8 0 a3.9 3.9 0 1 0 -7.8 0zM865.33 631.43 a3.9 3.9 0 1 0 7.8 0 a3.9 3.9 0 1 0 -7.8 0zM831.55 650.93 a3.9 3.9 0 1 0 7.8 0 a3.9 3.9 0 1 0 -7.8 0zM865.33 943.43 a3.9 3.9 0 1 0 7.8 0 a3.9 3.9 0 1 0 -7.8 0zM865.33 982.43 a3.9 3.9 0 1 0 7.8 0 a3.9 3.9 0 1 0 -7.8 0zM899.1 -12.07 a3.9 3.9 0 1 0 7.8 0 a3.9 3.9 0 1 0 -7.8 0zM932.88 7.43 a3.9 3.9 0 1 0 7.8 0 a3.9 3.9 0 1 0 -7.8 0zM932.88 46.43 a3.9 3.9 0 1 0 7.8 0 a3.9 3.9 0 1 0 -7.8 0zM932.88 124.43 a3.9 3.9 0 1 0 7.8 0 a3.9 3.9 0 1 0 -7.8 0zM932.88 163.43 a3.9 3.9 0 1 0 7.8 0 a3.9 3.9 0 1 0 -7.8 0zM899.1 182.93 a3.9 3.9 0 1 0 7.8 0 a3.9 3.9 0 1 0 -7.8 0zM865.33 163.43 a3.9 3.9 0 1 0 7.8 0 a3.9 3.9 0 1 0 -7.8 0zM932.88 358.43 a3.9 3.9 0 1 0 7.8 0 a3.9 3.9 0 1 0 -7.8 0zM932.88 397.43 a3.9 3.9 0 1 0 7.8 0 a3.9 3.9 0 1 0 -7.8 0zM899.1 416.93 a3.9 3.9 0 1 0 7.8 0 a3.9 3.9 0 1 0 -7.8 0zM899.1 455.93 a3.9 3.9 0 1 0 7.8 0 a3.9 3.9 0 1 0 -7.8 0zM932.88 475.43 a3.9 3.9 0 1 0 7.8 0 a3.9 3.9 0 1 0 -7.8 0zM932.88 514.43 a3.9 3.9 0 1 0 7.8 0 a3.9 3.9 0 1 0 -7.8 0zM899.1 533.93 a3.9 3.9 0 1 0 7.8 0 a3.9 3.9 0 1 0 -7.8 0zM932.88 631.43 a3.9 3.9 0 1 0 7.8 0 a3.9 3.9 0 1 0 -7.8 0zM966.66 650.93 a3.9 3.9 0 1 0 7.8 0 a3.9 3.9 0 1 0 -7.8 0zM966.66 689.93 a3.9 3.9 0 1 0 7.8 0 a3.9 3.9 0 1 0 -7.8 0zM932.88 709.43 a3.9 3.9 0 1 0 7.8 0 a3.9 3.9 0 1 0 -7.8 0zM899.1 689.93 a3.9 3.9 0 1 0 7.8 0 a3.9 3.9 0 1 0 -7.8 0zM899.1 650.93 a3.9 3.9 0 1 0 7.8 0 a3.9 3.9 0 1 0 -7.8 0zM899.1 806.93 a3.9 3.9 0 1 0 7.8 0 a3.9 3.9 0 1 0 -7.8 0zM932.88 826.43 a3.9 3.9 0 1 0 7.8 0 a3.9 3.9 0 1 0 -7.8 0zM932.88 865.43 a3.9 3.9 0 1 0 7.8 0 a3.9 3.9 0 1 0 -7.8 0zM899.1 884.93 a3.9 3.9 0 1 0 7.8 0 a3.9 3.9 0 1 0 -7.8 0zM865.33 865.43 a3.9 3.9 0 1 0 7.8 0 a3.9 3.9 0 1 0 -7.8 0zM865.33 826.43 a3.9 3.9 0 1 0 7.8 0 a3.9 3.9 0 1 0 -7.8 0zM966.66 884.93 a3.9 3.9 0 1 0 7.8 0 a3.9 3.9 0 1 0 -7.8 0zM966.66 923.93 a3.9 3.9 0 1 0 7.8 0 a3.9 3.9 0 1 0 -7.8 0zM932.88 943.43 a3.9 3.9 0 1 0 7.8 0 a3.9 3.9 0 1 0 -7.8 0zM899.1 923.93 a3.9 3.9 0 1 0 7.8 0 a3.9 3.9 0 1 0 -7.8 0zM966.66 -12.07 a3.9 3.9 0 1 0 7.8 0 a3.9 3.9 0 1 0 -7.8 0zM1000.43 7.43 a3.9 3.9 0 1 0 7.8 0 a3.9 3.9 0 1 0 -7.8 0zM1000.43 46.43 a3.9 3.9 0 1 0 7.8 0 a3.9 3.9 0 1 0 -7.8 0zM966.66 65.93 a3.9 3.9 0 1 0 7.8 0 a3.9 3.9 0 1 0 -7.8 0zM1034.21 65.93 a3.9 3.9 0 1 0 7.8 0 a3.9 3.9 0 1 0 -7.8 0zM1034.21 104.93 a3.9 3.9 0 1 0 7.8 0 a3.9 3.9 0 1 0 -7.8 0zM1000.43 124.43 a3.9 3.9 0 1 0 7.8 0 a3.9 3.9 0 1 0 -7.8 0zM966.66 104.93 a3.9 3.9 0 1 0 7.8 0 a3.9 3.9 0 1 0 -7.8 0zM966.66 221.93 a3.9 3.9 0 1 0 7.8 0 a3.9 3.9 0 1 0 -7.8 0zM1000.43 241.43 a3.9 3.9 0 1 0 7.8 0 a3.9 3.9 0 1 0 -7.8 0zM1000.43 280.43 a3.9 3.9 0 1 0 7.8 0 a3.9 3.9 0 1 0 -7.8 0zM966.66 299.93 a3.9 3.9 0 1 0 7.8 0 a3.9 3.9 0 1 0 -7.8 0zM932.88 280.43 a3.9 3.9 0 1 0 7.8 0 a3.9 3.9 0 1 0 -7.8 0zM932.88 241.43 a3.9 3.9 0 1 0 7.8 0 a3.9 3.9 0 1 0 -7.8 0zM966.66 455.93 a3.9 3.9 0 1 0 7.8 0 a3.9 3.9 0 1 0 -7.8 0zM1000.43 475.43 a3.9 3.9 0 1 0 7.8 0 a3.9 3.9 0 1 0 -7.8 0zM1000.43 514.43 a3.9 3.9 0 1 0 7.8 0 a3.9 3.9 0 1 0 -7.8 0zM966.66 533.93 a3.9 3.9 0 1 0 7.8 0 a3.9 3.9 0 1 0 -7.8 0zM1034.21 533.93 a3.9 3.9 0 1 0 7.8 0 a3.9 3.9 0 1 0 -7.8 0zM1034.21 572.93 a3.9 3.9 0 1 0 7.8 0 a3.9 3.9 0 1 0 -7.8 0zM1000.43 592.43 a3.9 3.9 0 1 0 7.8 0 a3.9 3.9 0 1 0 -7.8 0zM966.66 572.93 a3.9 3.9 0 1 0 7.8 0 a3.9 3.9 0 1 0 -7.8 0zM1000.43 631.43 a3.9 3.9 0 1 0 7.8 0 a3.9 3.9 0 1 0 -7.8 0zM1034.21 650.93 a3.9 3.9 0 1 0 7.8 0 a3.9 3.9 0 1 0 -7.8 0zM1034.21 689.93 a3.9 3.9 0 1 0 7.8 0 a3.9 3.9 0 1 0 -7.8 0zM1000.43 709.43 a3.9 3.9 0 1 0 7.8 0 a3.9 3.9 0 1 0 -7.8 0zM1000.43 748.43 a3.9 3.9 0 1 0 7.8 0 a3.9 3.9 0 1 0 -7.8 0zM1034.21 767.93 a3.9 3.9 0 1 0 7.8 0 a3.9 3.9 0 1 0 -7.8 0zM1034.21 806.93 a3.9 3.9 0 1 0 7.8 0 a3.9 3.9 0 1 0 -7.8 0zM1000.43 826.43 a3.9 3.9 0 1 0 7.8 0 a3.9 3.9 0 1 0 -7.8 0zM966.66 806.93 a3.9 3.9 0 1 0 7.8 0 a3.9 3.9 0 1 0 -7.8 0zM966.66 767.93 a3.9 3.9 0 1 0 7.8 0 a3.9 3.9 0 1 0 -7.8 0zM1000.43 865.43 a3.9 3.9 0 1 0 7.8 0 a3.9 3.9 0 1 0 -7.8 0zM1034.21 884.93 a3.9 3.9 0 1 0 7.8 0 a3.9 3.9 0 1 0 -7.8 0zM1034.21 923.93 a3.9 3.9 0 1 0 7.8 0 a3.9 3.9 0 1 0 -7.8 0zM1000.43 943.43 a3.9 3.9 0 1 0 7.8 0 a3.9 3.9 0 1 0 -7.8 0zM1000.43 982.43 a3.9 3.9 0 1 0 7.8 0 a3.9 3.9 0 1 0 -7.8 0zM1034.21 1001.93 a3.9 3.9 0 1 0 7.8 0 a3.9 3.9 0 1 0 -7.8 0zM1034.21 1040.93 a3.9 3.9 0 1 0 7.8 0 a3.9 3.9 0 1 0 -7.8 0zM1000.43 1060.43 a3.9 3.9 0 1 0 7.8 0 a3.9 3.9 0 1 0 -7.8 0zM966.66 1040.93 a3.9 3.9 0 1 0 7.8 0 a3.9 3.9 0 1 0 -7.8 0zM966.66 1001.93 a3.9 3.9 0 1 0 7.8 0 a3.9 3.9 0 1 0 -7.8 0zM1034.21 -12.07 a3.9 3.9 0 1 0 7.8 0 a3.9 3.9 0 1 0 -7.8 0zM1067.98 7.43 a3.9 3.9 0 1 0 7.8 0 a3.9 3.9 0 1 0 -7.8 0zM1067.98 46.43 a3.9 3.9 0 1 0 7.8 0 a3.9 3.9 0 1 0 -7.8 0zM1034.21 221.93 a3.9 3.9 0 1 0 7.8 0 a3.9 3.9 0 1 0 -7.8 0zM1067.98 241.43 a3.9 3.9 0 1 0 7.8 0 a3.9 3.9 0 1 0 -7.8 0zM1067.98 280.43 a3.9 3.9 0 1 0 7.8 0 a3.9 3.9 0 1 0 -7.8 0zM1034.21 299.93 a3.9 3.9 0 1 0 7.8 0 a3.9 3.9 0 1 0 -7.8 0zM1101.76 299.93 a3.9 3.9 0 1 0 7.8 0 a3.9 3.9 0 1 0 -7.8 0zM1101.76 338.93 a3.9 3.9 0 1 0 7.8 0 a3.9 3.9 0 1 0 -7.8 0zM1067.98 358.43 a3.9 3.9 0 1 0 7.8 0 a3.9 3.9 0 1 0 -7.8 0zM1034.21 338.93 a3.9 3.9 0 1 0 7.8 0 a3.9 3.9 0 1 0 -7.8 0zM1067.98 397.43 a3.9 3.9 0 1 0 7.8 0 a3.9 3.9 0 1 0 -7.8 0zM1101.76 416.93 a3.9 3.9 0 1 0 7.8 0 a3.9 3.9 0 1 0 -7.8 0zM1101.76 455.93 a3.9 3.9 0 1 0 7.8 0 a3.9 3.9 0 1 0 -7.8 0zM1067.98 475.43 a3.9 3.9 0 1 0 7.8 0 a3.9 3.9 0 1 0 -7.8 0zM1034.21 455.93 a3.9 3.9 0 1 0 7.8 0 a3.9 3.9 0 1 0 -7.8 0zM1034.21 416.93 a3.9 3.9 0 1 0 7.8 0 a3.9 3.9 0 1 0 -7.8 0zM1067.98 514.43 a3.9 3.9 0 1 0 7.8 0 a3.9 3.9 0 1 0 -7.8 0zM1101.76 533.93 a3.9 3.9 0 1 0 7.8 0 a3.9 3.9 0 1 0 -7.8 0zM1101.76 572.93 a3.9 3.9 0 1 0 7.8 0 a3.9 3.9 0 1 0 -7.8 0zM1067.98 592.43 a3.9 3.9 0 1 0 7.8 0 a3.9 3.9 0 1 0 -7.8 0zM1067.98 748.43 a3.9 3.9 0 1 0 7.8 0 a3.9 3.9 0 1 0 -7.8 0zM1101.76 767.93 a3.9 3.9 0 1 0 7.8 0 a3.9 3.9 0 1 0 -7.8 0zM1101.76 806.93 a3.9 3.9 0 1 0 7.8 0 a3.9 3.9 0 1 0 -7.8 0zM1067.98 826.43 a3.9 3.9 0 1 0 7.8 0 a3.9 3.9 0 1 0 -7.8 0zM1067.98 943.43 a3.9 3.9 0 1 0 7.8 0 a3.9 3.9 0 1 0 -7.8 0zM1067.98 982.43 a3.9 3.9 0 1 0 7.8 0 a3.9 3.9 0 1 0 -7.8 0zM1101.76 -12.07 a3.9 3.9 0 1 0 7.8 0 a3.9 3.9 0 1 0 -7.8 0zM1135.54 7.43 a3.9 3.9 0 1 0 7.8 0 a3.9 3.9 0 1 0 -7.8 0zM1135.54 46.43 a3.9 3.9 0 1 0 7.8 0 a3.9 3.9 0 1 0 -7.8 0zM1101.76 65.93 a3.9 3.9 0 1 0 7.8 0 a3.9 3.9 0 1 0 -7.8 0zM1101.76 104.93 a3.9 3.9 0 1 0 7.8 0 a3.9 3.9 0 1 0 -7.8 0zM1135.54 124.43 a3.9 3.9 0 1 0 7.8 0 a3.9 3.9 0 1 0 -7.8 0zM1135.54 163.43 a3.9 3.9 0 1 0 7.8 0 a3.9 3.9 0 1 0 -7.8 0zM1101.76 182.93 a3.9 3.9 0 1 0 7.8 0 a3.9 3.9 0 1 0 -7.8 0zM1067.98 163.43 a3.9 3.9 0 1 0 7.8 0 a3.9 3.9 0 1 0 -7.8 0zM1067.98 124.43 a3.9 3.9 0 1 0 7.8 0 a3.9 3.9 0 1 0 -7.8 0zM1169.31 182.93 a3.9 3.9 0 1 0 7.8 0 a3.9 3.9 0 1 0 -7.8 0zM1169.31 221.93 a3.9 3.9 0 1 0 7.8 0 a3.9 3.9 0 1 0 -7.8 0zM1135.54 241.43 a3.9 3.9 0 1 0 7.8 0 a3.9 3.9 0 1 0 -7.8 0zM1101.76 221.93 a3.9 3.9 0 1 0 7.8 0 a3.9 3.9 0 1 0 -7.8 0zM1135.54 280.43 a3.9 3.9 0 1 0 7.8 0 a3.9 3.9 0 1 0 -7.8 0zM1169.31 299.93 a3.9 3.9 0 1 0 7.8 0 a3.9 3.9 0 1 0 -7.8 0zM1169.31 338.93 a3.9 3.9 0 1 0 7.8 0 a3.9 3.9 0 1 0 -7.8 0zM1135.54 358.43 a3.9 3.9 0 1 0 7.8 0 a3.9 3.9 0 1 0 -7.8 0zM1135.54 397.43 a3.9 3.9 0 1 0 7.8 0 a3.9 3.9 0 1 0 -7.8 0zM1135.54 514.43 a3.9 3.9 0 1 0 7.8 0 a3.9 3.9 0 1 0 -7.8 0zM1169.31 533.93 a3.9 3.9 0 1 0 7.8 0 a3.9 3.9 0 1 0 -7.8 0zM1169.31 572.93 a3.9 3.9 0 1 0 7.8 0 a3.9 3.9 0 1 0 -7.8 0zM1135.54 592.43 a3.9 3.9 0 1 0 7.8 0 a3.9 3.9 0 1 0 -7.8 0zM1135.54 631.43 a3.9 3.9 0 1 0 7.8 0 a3.9 3.9 0 1 0 -7.8 0zM1101.76 650.93 a3.9 3.9 0 1 0 7.8 0 a3.9 3.9 0 1 0 -7.8 0zM1067.98 631.43 a3.9 3.9 0 1 0 7.8 0 a3.9 3.9 0 1 0 -7.8 0zM1101.76 689.93 a3.9 3.9 0 1 0 7.8 0 a3.9 3.9 0 1 0 -7.8 0zM1135.54 709.43 a3.9 3.9 0 1 0 7.8 0 a3.9 3.9 0 1 0 -7.8 0zM1135.54 748.43 a3.9 3.9 0 1 0 7.8 0 a3.9 3.9 0 1 0 -7.8 0zM1067.98 709.43 a3.9 3.9 0 1 0 7.8 0 a3.9 3.9 0 1 0 -7.8 0zM1135.54 826.43 a3.9 3.9 0 1 0 7.8 0 a3.9 3.9 0 1 0 -7.8 0zM1135.54 865.43 a3.9 3.9 0 1 0 7.8 0 a3.9 3.9 0 1 0 -7.8 0zM1101.76 884.93 a3.9 3.9 0 1 0 7.8 0 a3.9 3.9 0 1 0 -7.8 0zM1067.98 865.43 a3.9 3.9 0 1 0 7.8 0 a3.9 3.9 0 1 0 -7.8 0zM1169.31 884.93 a3.9 3.9 0 1 0 7.8 0 a3.9 3.9 0 1 0 -7.8 0zM1169.31 923.93 a3.9 3.9 0 1 0 7.8 0 a3.9 3.9 0 1 0 -7.8 0zM1135.54 943.43 a3.9 3.9 0 1 0 7.8 0 a3.9 3.9 0 1 0 -7.8 0zM1101.76 923.93 a3.9 3.9 0 1 0 7.8 0 a3.9 3.9 0 1 0 -7.8 0zM1135.54 982.43 a3.9 3.9 0 1 0 7.8 0 a3.9 3.9 0 1 0 -7.8 0zM1169.31 1001.93 a3.9 3.9 0 1 0 7.8 0 a3.9 3.9 0 1 0 -7.8 0zM1169.31 1040.93 a3.9 3.9 0 1 0 7.8 0 a3.9 3.9 0 1 0 -7.8 0zM1135.54 1060.43 a3.9 3.9 0 1 0 7.8 0 a3.9 3.9 0 1 0 -7.8 0zM1101.76 1040.93 a3.9 3.9 0 1 0 7.8 0 a3.9 3.9 0 1 0 -7.8 0zM1101.76 1001.93 a3.9 3.9 0 1 0 7.8 0 a3.9 3.9 0 1 0 -7.8 0zM1169.31 -12.07 a3.9 3.9 0 1 0 7.8 0 a3.9 3.9 0 1 0 -7.8 0zM1203.09 7.43 a3.9 3.9 0 1 0 7.8 0 a3.9 3.9 0 1 0 -7.8 0zM1203.09 46.43 a3.9 3.9 0 1 0 7.8 0 a3.9 3.9 0 1 0 -7.8 0zM1169.31 65.93 a3.9 3.9 0 1 0 7.8 0 a3.9 3.9 0 1 0 -7.8 0zM1169.31 104.93 a3.9 3.9 0 1 0 7.8 0 a3.9 3.9 0 1 0 -7.8 0zM1203.09 124.43 a3.9 3.9 0 1 0 7.8 0 a3.9 3.9 0 1 0 -7.8 0zM1203.09 163.43 a3.9 3.9 0 1 0 7.8 0 a3.9 3.9 0 1 0 -7.8 0zM1203.09 241.43 a3.9 3.9 0 1 0 7.8 0 a3.9 3.9 0 1 0 -7.8 0zM1203.09 280.43 a3.9 3.9 0 1 0 7.8 0 a3.9 3.9 0 1 0 -7.8 0zM1236.86 299.93 a3.9 3.9 0 1 0 7.8 0 a3.9 3.9 0 1 0 -7.8 0zM1236.86 338.93 a3.9 3.9 0 1 0 7.8 0 a3.9 3.9 0 1 0 -7.8 0zM1203.09 358.43 a3.9 3.9 0 1 0 7.8 0 a3.9 3.9 0 1 0 -7.8 0zM1203.09 397.43 a3.9 3.9 0 1 0 7.8 0 a3.9 3.9 0 1 0 -7.8 0zM1169.31 416.93 a3.9 3.9 0 1 0 7.8 0 a3.9 3.9 0 1 0 -7.8 0zM1203.09 514.43 a3.9 3.9 0 1 0 7.8 0 a3.9 3.9 0 1 0 -7.8 0zM1236.86 533.93 a3.9 3.9 0 1 0 7.8 0 a3.9 3.9 0 1 0 -7.8 0zM1236.86 572.93 a3.9 3.9 0 1 0 7.8 0 a3.9 3.9 0 1 0 -7.8 0zM1203.09 592.43 a3.9 3.9 0 1 0 7.8 0 a3.9 3.9 0 1 0 -7.8 0zM1203.09 631.43 a3.9 3.9 0 1 0 7.8 0 a3.9 3.9 0 1 0 -7.8 0zM1236.86 650.93 a3.9 3.9 0 1 0 7.8 0 a3.9 3.9 0 1 0 -7.8 0zM1236.86 689.93 a3.9 3.9 0 1 0 7.8 0 a3.9 3.9 0 1 0 -7.8 0zM1203.09 709.43 a3.9 3.9 0 1 0 7.8 0 a3.9 3.9 0 1 0 -7.8 0zM1169.31 689.93 a3.9 3.9 0 1 0 7.8 0 a3.9 3.9 0 1 0 -7.8 0zM1169.31 650.93 a3.9 3.9 0 1 0 7.8 0 a3.9 3.9 0 1 0 -7.8 0zM1203.09 748.43 a3.9 3.9 0 1 0 7.8 0 a3.9 3.9 0 1 0 -7.8 0zM1236.86 767.93 a3.9 3.9 0 1 0 7.8 0 a3.9 3.9 0 1 0 -7.8 0zM1236.86 806.93 a3.9 3.9 0 1 0 7.8 0 a3.9 3.9 0 1 0 -7.8 0zM1203.09 826.43 a3.9 3.9 0 1 0 7.8 0 a3.9 3.9 0 1 0 -7.8 0zM1169.31 806.93 a3.9 3.9 0 1 0 7.8 0 a3.9 3.9 0 1 0 -7.8 0zM1169.31 767.93 a3.9 3.9 0 1 0 7.8 0 a3.9 3.9 0 1 0 -7.8 0zM1203.09 865.43 a3.9 3.9 0 1 0 7.8 0 a3.9 3.9 0 1 0 -7.8 0zM1236.86 884.93 a3.9 3.9 0 1 0 7.8 0 a3.9 3.9 0 1 0 -7.8 0zM1236.86 923.93 a3.9 3.9 0 1 0 7.8 0 a3.9 3.9 0 1 0 -7.8 0zM1203.09 943.43 a3.9 3.9 0 1 0 7.8 0 a3.9 3.9 0 1 0 -7.8 0zM1270.64 397.43 a3.9 3.9 0 1 0 7.8 0 a3.9 3.9 0 1 0 -7.8 0zM1304.42 416.93 a3.9 3.9 0 1 0 7.8 0 a3.9 3.9 0 1 0 -7.8 0zM1304.42 455.93 a3.9 3.9 0 1 0 7.8 0 a3.9 3.9 0 1 0 -7.8 0zM1270.64 475.43 a3.9 3.9 0 1 0 7.8 0 a3.9 3.9 0 1 0 -7.8 0zM1236.86 455.93 a3.9 3.9 0 1 0 7.8 0 a3.9 3.9 0 1 0 -7.8 0zM1236.86 416.93 a3.9 3.9 0 1 0 7.8 0 a3.9 3.9 0 1 0 -7.8 0zM1270.64 514.43 a3.9 3.9 0 1 0 7.8 0 a3.9 3.9 0 1 0 -7.8 0zM1304.42 533.93 a3.9 3.9 0 1 0 7.8 0 a3.9 3.9 0 1 0 -7.8 0zM1304.42 572.93 a3.9 3.9 0 1 0 7.8 0 a3.9 3.9 0 1 0 -7.8 0zM1270.64 592.43 a3.9 3.9 0 1 0 7.8 0 a3.9 3.9 0 1 0 -7.8 0zM1270.64 631.43 a3.9 3.9 0 1 0 7.8 0 a3.9 3.9 0 1 0 -7.8 0zM1304.42 650.93 a3.9 3.9 0 1 0 7.8 0 a3.9 3.9 0 1 0 -7.8 0zM1304.42 689.93 a3.9 3.9 0 1 0 7.8 0 a3.9 3.9 0 1 0 -7.8 0zM1270.64 709.43 a3.9 3.9 0 1 0 7.8 0 a3.9 3.9 0 1 0 -7.8 0zM1270.64 748.43 a3.9 3.9 0 1 0 7.8 0 a3.9 3.9 0 1 0 -7.8 0zM1304.42 767.93 a3.9 3.9 0 1 0 7.8 0 a3.9 3.9 0 1 0 -7.8 0zM1304.42 806.93 a3.9 3.9 0 1 0 7.8 0 a3.9 3.9 0 1 0 -7.8 0zM1270.64 826.43 a3.9 3.9 0 1 0 7.8 0 a3.9 3.9 0 1 0 -7.8 0zM1270.64 943.43 a3.9 3.9 0 1 0 7.8 0 a3.9 3.9 0 1 0 -7.8 0zM1270.64 982.43 a3.9 3.9 0 1 0 7.8 0 a3.9 3.9 0 1 0 -7.8 0zM1236.86 1001.93 a3.9 3.9 0 1 0 7.8 0 a3.9 3.9 0 1 0 -7.8 0zM1203.09 982.43 a3.9 3.9 0 1 0 7.8 0 a3.9 3.9 0 1 0 -7.8 0zM1304.42 1001.93 a3.9 3.9 0 1 0 7.8 0 a3.9 3.9 0 1 0 -7.8 0zM1304.42 1040.93 a3.9 3.9 0 1 0 7.8 0 a3.9 3.9 0 1 0 -7.8 0zM1270.64 1060.43 a3.9 3.9 0 1 0 7.8 0 a3.9 3.9 0 1 0 -7.8 0zM1236.86 1040.93 a3.9 3.9 0 1 0 7.8 0 a3.9 3.9 0 1 0 -7.8 0zM1338.19 46.43 a3.9 3.9 0 1 0 7.8 0 a3.9 3.9 0 1 0 -7.8 0zM1371.97 65.93 a3.9 3.9 0 1 0 7.8 0 a3.9 3.9 0 1 0 -7.8 0zM1371.97 104.93 a3.9 3.9 0 1 0 7.8 0 a3.9 3.9 0 1 0 -7.8 0zM1338.19 124.43 a3.9 3.9 0 1 0 7.8 0 a3.9 3.9 0 1 0 -7.8 0zM1304.42 104.93 a3.9 3.9 0 1 0 7.8 0 a3.9 3.9 0 1 0 -7.8 0zM1304.42 65.93 a3.9 3.9 0 1 0 7.8 0 a3.9 3.9 0 1 0 -7.8 0zM1338.19 163.43 a3.9 3.9 0 1 0 7.8 0 a3.9 3.9 0 1 0 -7.8 0zM1304.42 182.93 a3.9 3.9 0 1 0 7.8 0 a3.9 3.9 0 1 0 -7.8 0zM1270.64 163.43 a3.9 3.9 0 1 0 7.8 0 a3.9 3.9 0 1 0 -7.8 0zM1270.64 124.43 a3.9 3.9 0 1 0 7.8 0 a3.9 3.9 0 1 0 -7.8 0zM1304.42 221.93 a3.9 3.9 0 1 0 7.8 0 a3.9 3.9 0 1 0 -7.8 0zM1338.19 241.43 a3.9 3.9 0 1 0 7.8 0 a3.9 3.9 0 1 0 -7.8 0zM1338.19 280.43 a3.9 3.9 0 1 0 7.8 0 a3.9 3.9 0 1 0 -7.8 0zM1304.42 299.93 a3.9 3.9 0 1 0 7.8 0 a3.9 3.9 0 1 0 -7.8 0zM1270.64 280.43 a3.9 3.9 0 1 0 7.8 0 a3.9 3.9 0 1 0 -7.8 0zM1270.64 241.43 a3.9 3.9 0 1 0 7.8 0 a3.9 3.9 0 1 0 -7.8 0zM1338.19 475.43 a3.9 3.9 0 1 0 7.8 0 a3.9 3.9 0 1 0 -7.8 0zM1338.19 514.43 a3.9 3.9 0 1 0 7.8 0 a3.9 3.9 0 1 0 -7.8 0zM1371.97 533.93 a3.9 3.9 0 1 0 7.8 0 a3.9 3.9 0 1 0 -7.8 0zM1371.97 572.93 a3.9 3.9 0 1 0 7.8 0 a3.9 3.9 0 1 0 -7.8 0zM1338.19 592.43 a3.9 3.9 0 1 0 7.8 0 a3.9 3.9 0 1 0 -7.8 0zM1338.19 631.43 a3.9 3.9 0 1 0 7.8 0 a3.9 3.9 0 1 0 -7.8 0zM1371.97 650.93 a3.9 3.9 0 1 0 7.8 0 a3.9 3.9 0 1 0 -7.8 0zM1371.97 689.93 a3.9 3.9 0 1 0 7.8 0 a3.9 3.9 0 1 0 -7.8 0zM1338.19 709.43 a3.9 3.9 0 1 0 7.8 0 a3.9 3.9 0 1 0 -7.8 0zM1338.19 748.43 a3.9 3.9 0 1 0 7.8 0 a3.9 3.9 0 1 0 -7.8 0zM1371.97 767.93 a3.9 3.9 0 1 0 7.8 0 a3.9 3.9 0 1 0 -7.8 0zM1371.97 806.93 a3.9 3.9 0 1 0 7.8 0 a3.9 3.9 0 1 0 -7.8 0zM1338.19 826.43 a3.9 3.9 0 1 0 7.8 0 a3.9 3.9 0 1 0 -7.8 0zM1338.19 865.43 a3.9 3.9 0 1 0 7.8 0 a3.9 3.9 0 1 0 -7.8 0zM1304.42 884.93 a3.9 3.9 0 1 0 7.8 0 a3.9 3.9 0 1 0 -7.8 0zM1270.64 865.43 a3.9 3.9 0 1 0 7.8 0 a3.9 3.9 0 1 0 -7.8 0zM1304.42 923.93 a3.9 3.9 0 1 0 7.8 0 a3.9 3.9 0 1 0 -7.8 0zM1338.19 943.43 a3.9 3.9 0 1 0 7.8 0 a3.9 3.9 0 1 0 -7.8 0zM1338.19 982.43 a3.9 3.9 0 1 0 7.8 0 a3.9 3.9 0 1 0 -7.8 0zM1371.97 1001.93 a3.9 3.9 0 1 0 7.8 0 a3.9 3.9 0 1 0 -7.8 0zM1371.97 1040.93 a3.9 3.9 0 1 0 7.8 0 a3.9 3.9 0 1 0 -7.8 0zM1338.19 1060.43 a3.9 3.9 0 1 0 7.8 0 a3.9 3.9 0 1 0 -7.8 0zM1371.97 -12.07 a3.9 3.9 0 1 0 7.8 0 a3.9 3.9 0 1 0 -7.8 0zM1405.74 7.43 a3.9 3.9 0 1 0 7.8 0 a3.9 3.9 0 1 0 -7.8 0zM1405.74 46.43 a3.9 3.9 0 1 0 7.8 0 a3.9 3.9 0 1 0 -7.8 0zM1338.19 7.43 a3.9 3.9 0 1 0 7.8 0 a3.9 3.9 0 1 0 -7.8 0zM1405.74 124.43 a3.9 3.9 0 1 0 7.8 0 a3.9 3.9 0 1 0 -7.8 0zM1405.74 163.43 a3.9 3.9 0 1 0 7.8 0 a3.9 3.9 0 1 0 -7.8 0zM1371.97 182.93 a3.9 3.9 0 1 0 7.8 0 a3.9 3.9 0 1 0 -7.8 0zM1439.52 182.93 a3.9 3.9 0 1 0 7.8 0 a3.9 3.9 0 1 0 -7.8 0zM1439.52 221.93 a3.9 3.9 0 1 0 7.8 0 a3.9 3.9 0 1 0 -7.8 0zM1405.74 241.43 a3.9 3.9 0 1 0 7.8 0 a3.9 3.9 0 1 0 -7.8 0zM1371.97 221.93 a3.9 3.9 0 1 0 7.8 0 a3.9 3.9 0 1 0 -7.8 0zM1371.97 455.93 a3.9 3.9 0 1 0 7.8 0 a3.9 3.9 0 1 0 -7.8 0zM1405.74 475.43 a3.9 3.9 0 1 0 7.8 0 a3.9 3.9 0 1 0 -7.8 0zM1405.74 514.43 a3.9 3.9 0 1 0 7.8 0 a3.9 3.9 0 1 0 -7.8 0zM1439.52 533.93 a3.9 3.9 0 1 0 7.8 0 a3.9 3.9 0 1 0 -7.8 0zM1439.52 572.93 a3.9 3.9 0 1 0 7.8 0 a3.9 3.9 0 1 0 -7.8 0zM1405.74 592.43 a3.9 3.9 0 1 0 7.8 0 a3.9 3.9 0 1 0 -7.8 0zM1405.74 631.43 a3.9 3.9 0 1 0 7.8 0 a3.9 3.9 0 1 0 -7.8 0zM1439.52 650.93 a3.9 3.9 0 1 0 7.8 0 a3.9 3.9 0 1 0 -7.8 0zM1439.52 689.93 a3.9 3.9 0 1 0 7.8 0 a3.9 3.9 0 1 0 -7.8 0zM1405.74 709.43 a3.9 3.9 0 1 0 7.8 0 a3.9 3.9 0 1 0 -7.8 0zM1371.97 923.93 a3.9 3.9 0 1 0 7.8 0 a3.9 3.9 0 1 0 -7.8 0zM1405.74 943.43 a3.9 3.9 0 1 0 7.8 0 a3.9 3.9 0 1 0 -7.8 0zM1405.74 982.43 a3.9 3.9 0 1 0 7.8 0 a3.9 3.9 0 1 0 -7.8 0zM1439.52 1001.93 a3.9 3.9 0 1 0 7.8 0 a3.9 3.9 0 1 0 -7.8 0zM1439.52 1040.93 a3.9 3.9 0 1 0 7.8 0 a3.9 3.9 0 1 0 -7.8 0zM1405.74 1060.43 a3.9 3.9 0 1 0 7.8 0 a3.9 3.9 0 1 0 -7.8 0zM1439.52 -12.07 a3.9 3.9 0 1 0 7.8 0 a3.9 3.9 0 1 0 -7.8 0zM1473.3 7.43 a3.9 3.9 0 1 0 7.8 0 a3.9 3.9 0 1 0 -7.8 0zM1473.3 46.43 a3.9 3.9 0 1 0 7.8 0 a3.9 3.9 0 1 0 -7.8 0zM1439.52 65.93 a3.9 3.9 0 1 0 7.8 0 a3.9 3.9 0 1 0 -7.8 0zM1507.07 65.93 a3.9 3.9 0 1 0 7.8 0 a3.9 3.9 0 1 0 -7.8 0zM1507.07 104.93 a3.9 3.9 0 1 0 7.8 0 a3.9 3.9 0 1 0 -7.8 0zM1473.3 124.43 a3.9 3.9 0 1 0 7.8 0 a3.9 3.9 0 1 0 -7.8 0zM1439.52 104.93 a3.9 3.9 0 1 0 7.8 0 a3.9 3.9 0 1 0 -7.8 0zM1473.3 163.43 a3.9 3.9 0 1 0 7.8 0 a3.9 3.9 0 1 0 -7.8 0zM1473.3 241.43 a3.9 3.9 0 1 0 7.8 0 a3.9 3.9 0 1 0 -7.8 0zM1473.3 280.43 a3.9 3.9 0 1 0 7.8 0 a3.9 3.9 0 1 0 -7.8 0zM1439.52 299.93 a3.9 3.9 0 1 0 7.8 0 a3.9 3.9 0 1 0 -7.8 0zM1405.74 280.43 a3.9 3.9 0 1 0 7.8 0 a3.9 3.9 0 1 0 -7.8 0zM1507.07 299.93 a3.9 3.9 0 1 0 7.8 0 a3.9 3.9 0 1 0 -7.8 0zM1507.07 338.93 a3.9 3.9 0 1 0 7.8 0 a3.9 3.9 0 1 0 -7.8 0zM1473.3 358.43 a3.9 3.9 0 1 0 7.8 0 a3.9 3.9 0 1 0 -7.8 0zM1439.52 338.93 a3.9 3.9 0 1 0 7.8 0 a3.9 3.9 0 1 0 -7.8 0zM1473.3 397.43 a3.9 3.9 0 1 0 7.8 0 a3.9 3.9 0 1 0 -7.8 0zM1439.52 416.93 a3.9 3.9 0 1 0 7.8 0 a3.9 3.9 0 1 0 -7.8 0zM1405.74 397.43 a3.9 3.9 0 1 0 7.8 0 a3.9 3.9 0 1 0 -7.8 0zM1405.74 358.43 a3.9 3.9 0 1 0 7.8 0 a3.9 3.9 0 1 0 -7.8 0zM1439.52 455.93 a3.9 3.9 0 1 0 7.8 0 a3.9 3.9 0 1 0 -7.8 0zM1473.3 475.43 a3.9 3.9 0 1 0 7.8 0 a3.9 3.9 0 1 0 -7.8 0zM1473.3 514.43 a3.9 3.9 0 1 0 7.8 0 a3.9 3.9 0 1 0 -7.8 0zM1507.07 533.93 a3.9 3.9 0 1 0 7.8 0 a3.9 3.9 0 1 0 -7.8 0zM1507.07 572.93 a3.9 3.9 0 1 0 7.8 0 a3.9 3.9 0 1 0 -7.8 0zM1473.3 592.43 a3.9 3.9 0 1 0 7.8 0 a3.9 3.9 0 1 0 -7.8 0zM1473.3 631.43 a3.9 3.9 0 1 0 7.8 0 a3.9 3.9 0 1 0 -7.8 0zM1507.07 650.93 a3.9 3.9 0 1 0 7.8 0 a3.9 3.9 0 1 0 -7.8 0zM1507.07 689.93 a3.9 3.9 0 1 0 7.8 0 a3.9 3.9 0 1 0 -7.8 0zM1473.3 709.43 a3.9 3.9 0 1 0 7.8 0 a3.9 3.9 0 1 0 -7.8 0zM1473.3 748.43 a3.9 3.9 0 1 0 7.8 0 a3.9 3.9 0 1 0 -7.8 0zM1507.07 767.93 a3.9 3.9 0 1 0 7.8 0 a3.9 3.9 0 1 0 -7.8 0zM1507.07 806.93 a3.9 3.9 0 1 0 7.8 0 a3.9 3.9 0 1 0 -7.8 0zM1473.3 826.43 a3.9 3.9 0 1 0 7.8 0 a3.9 3.9 0 1 0 -7.8 0zM1439.52 806.93 a3.9 3.9 0 1 0 7.8 0 a3.9 3.9 0 1 0 -7.8 0zM1439.52 767.93 a3.9 3.9 0 1 0 7.8 0 a3.9 3.9 0 1 0 -7.8 0zM1473.3 865.43 a3.9 3.9 0 1 0 7.8 0 a3.9 3.9 0 1 0 -7.8 0zM1507.07 884.93 a3.9 3.9 0 1 0 7.8 0 a3.9 3.9 0 1 0 -7.8 0zM1507.07 923.93 a3.9 3.9 0 1 0 7.8 0 a3.9 3.9 0 1 0 -7.8 0zM1473.3 943.43 a3.9 3.9 0 1 0 7.8 0 a3.9 3.9 0 1 0 -7.8 0zM1439.52 923.93 a3.9 3.9 0 1 0 7.8 0 a3.9 3.9 0 1 0 -7.8 0zM1439.52 884.93 a3.9 3.9 0 1 0 7.8 0 a3.9 3.9 0 1 0 -7.8 0zM1473.3 982.43 a3.9 3.9 0 1 0 7.8 0 a3.9 3.9 0 1 0 -7.8 0zM1507.07 1001.93 a3.9 3.9 0 1 0 7.8 0 a3.9 3.9 0 1 0 -7.8 0zM1507.07 1040.93 a3.9 3.9 0 1 0 7.8 0 a3.9 3.9 0 1 0 -7.8 0zM1473.3 1060.43 a3.9 3.9 0 1 0 7.8 0 a3.9 3.9 0 1 0 -7.8 0z" fill="#03305d"></path><path d="M42.4 57.58L79.64 79.08L79.64 122.08L42.4 143.58L5.16 122.08L5.16 79.08zM42.4 573.58L79.64 595.08L79.64 638.08L42.4 659.58L5.16 638.08L5.16 595.08zM116.88 186.58L154.12 208.08L154.12 251.08L116.88 272.58L79.64 251.08L79.64 208.08zM116.88 315.58L154.12 337.08L154.12 380.08L116.88 401.58L79.64 380.08L79.64 337.08zM265.84 57.58L303.08 79.08L303.08 122.08L265.84 143.58L228.6 122.08L228.6 79.08zM265.84 573.58L303.08 595.08L303.08 638.08L265.84 659.58L228.6 638.08L228.6 595.08zM228.6 638.08L265.84 659.58L265.84 702.58L228.6 724.08L191.36 702.58L191.36 659.58zM265.84 831.58L303.08 853.08L303.08 896.08L265.84 917.58L228.6 896.08L228.6 853.08zM303.08 638.08L340.32 659.58L340.32 702.58L303.08 724.08L265.84 702.58L265.84 659.58zM414.8 57.58L452.04 79.08L452.04 122.08L414.8 143.58L377.56 122.08L377.56 79.08zM377.56 251.08L414.8 272.58L414.8 315.58L377.56 337.08L340.32 315.58L340.32 272.58zM377.56 380.08L414.8 401.58L414.8 444.58L377.56 466.08L340.32 444.58L340.32 401.58zM414.8 702.58L452.04 724.08L452.04 767.08L414.8 788.58L377.56 767.08L377.56 724.08zM452.04 122.08L489.28 143.58L489.28 186.58L452.04 208.08L414.8 186.58L414.8 143.58zM452.04 509.08L489.28 530.58L489.28 573.58L452.04 595.08L414.8 573.58L414.8 530.58zM526.52 251.08L563.76 272.58L563.76 315.58L526.52 337.08L489.28 315.58L489.28 272.58zM563.76 444.58L601 466.08L601 509.08L563.76 530.58L526.52 509.08L526.52 466.08zM563.76 960.58L601 982.08L601 1025.08L563.76 1046.58L526.52 1025.08L526.52 982.08zM638.24 444.58L675.48 466.08L675.48 509.08L638.24 530.58L601 509.08L601 466.08zM601 509.08L638.24 530.58L638.24 573.58L601 595.08L563.76 573.58L563.76 530.58zM601 1025.08L638.24 1046.58L638.24 1089.58L601 1111.08L563.76 1089.58L563.76 1046.58zM675.48 -6.92L712.72 14.58L712.72 57.58L675.48 79.08L638.24 57.58L638.24 14.58zM712.72 186.58L749.96 208.08L749.96 251.08L712.72 272.58L675.48 251.08L675.48 208.08zM712.72 960.58L749.96 982.08L749.96 1025.08L712.72 1046.58L675.48 1025.08L675.48 982.08zM787.2 186.58L824.44 208.08L824.44 251.08L787.2 272.58L749.96 251.08L749.96 208.08zM749.96 896.08L787.2 917.58L787.2 960.58L749.96 982.08L712.72 960.58L712.72 917.58zM824.44 509.08L861.68 530.58L861.68 573.58L824.44 595.08L787.2 573.58L787.2 530.58zM861.68 831.58L898.92 853.08L898.92 896.08L861.68 917.58L824.44 896.08L824.44 853.08zM973.4 638.08L1010.64 659.58L1010.64 702.58L973.4 724.08L936.16 702.58L936.16 659.58zM1010.64 702.58L1047.88 724.08L1047.88 767.08L1010.64 788.58L973.4 767.08L973.4 724.08zM1047.88 638.08L1085.12 659.58L1085.12 702.58L1047.88 724.08L1010.64 702.58L1010.64 659.58zM1122.36 251.08L1159.6 272.58L1159.6 315.58L1122.36 337.08L1085.12 315.58L1085.12 272.58zM1159.6 702.58L1196.84 724.08L1196.84 767.08L1159.6 788.58L1122.36 767.08L1122.36 724.08zM1196.84 251.08L1234.08 272.58L1234.08 315.58L1196.84 337.08L1159.6 315.58L1159.6 272.58zM1271.33 509.08L1308.57 530.58L1308.57 573.58L1271.33 595.08L1234.08 573.58L1234.08 530.58zM1345.81 122.08L1383.05 143.58L1383.05 186.58L1345.81 208.08L1308.57 186.58L1308.57 143.58zM1420.29 380.08L1457.53 401.58L1457.53 444.58L1420.29 466.08L1383.05 444.58L1383.05 401.58zM1420.29 638.08L1457.53 659.58L1457.53 702.58L1420.29 724.08L1383.05 702.58L1383.05 659.58z" stroke="rgba(6, 80, 156, 0.93)" stroke-width="2"></path><path d="M38.1 57.58 a4.3 4.3 0 1 0 8.6 0 a4.3 4.3 0 1 0 -8.6 0zM75.34 79.08 a4.3 4.3 0 1 0 8.6 0 a4.3 4.3 0 1 0 -8.6 0zM75.34 122.08 a4.3 4.3 0 1 0 8.6 0 a4.3 4.3 0 1 0 -8.6 0zM38.1 143.58 a4.3 4.3 0 1 0 8.6 0 a4.3 4.3 0 1 0 -8.6 0zM0.86 122.08 a4.3 4.3 0 1 0 8.6 0 a4.3 4.3 0 1 0 -8.6 0zM0.86 79.08 a4.3 4.3 0 1 0 8.6 0 a4.3 4.3 0 1 0 -8.6 0zM38.1 573.58 a4.3 4.3 0 1 0 8.6 0 a4.3 4.3 0 1 0 -8.6 0zM75.34 595.08 a4.3 4.3 0 1 0 8.6 0 a4.3 4.3 0 1 0 -8.6 0zM75.34 638.08 a4.3 4.3 0 1 0 8.6 0 a4.3 4.3 0 1 0 -8.6 0zM38.1 659.58 a4.3 4.3 0 1 0 8.6 0 a4.3 4.3 0 1 0 -8.6 0zM0.86 638.08 a4.3 4.3 0 1 0 8.6 0 a4.3 4.3 0 1 0 -8.6 0zM0.86 595.08 a4.3 4.3 0 1 0 8.6 0 a4.3 4.3 0 1 0 -8.6 0zM112.58 186.58 a4.3 4.3 0 1 0 8.6 0 a4.3 4.3 0 1 0 -8.6 0zM149.82 208.08 a4.3 4.3 0 1 0 8.6 0 a4.3 4.3 0 1 0 -8.6 0zM149.82 251.08 a4.3 4.3 0 1 0 8.6 0 a4.3 4.3 0 1 0 -8.6 0zM112.58 272.58 a4.3 4.3 0 1 0 8.6 0 a4.3 4.3 0 1 0 -8.6 0zM75.34 251.08 a4.3 4.3 0 1 0 8.6 0 a4.3 4.3 0 1 0 -8.6 0zM75.34 208.08 a4.3 4.3 0 1 0 8.6 0 a4.3 4.3 0 1 0 -8.6 0zM112.58 315.58 a4.3 4.3 0 1 0 8.6 0 a4.3 4.3 0 1 0 -8.6 0zM149.82 337.08 a4.3 4.3 0 1 0 8.6 0 a4.3 4.3 0 1 0 -8.6 0zM149.82 380.08 a4.3 4.3 0 1 0 8.6 0 a4.3 4.3 0 1 0 -8.6 0zM112.58 401.58 a4.3 4.3 0 1 0 8.6 0 a4.3 4.3 0 1 0 -8.6 0zM75.34 380.08 a4.3 4.3 0 1 0 8.6 0 a4.3 4.3 0 1 0 -8.6 0zM75.34 337.08 a4.3 4.3 0 1 0 8.6 0 a4.3 4.3 0 1 0 -8.6 0zM261.54 57.58 a4.3 4.3 0 1 0 8.6 0 a4.3 4.3 0 1 0 -8.6 0zM298.78 79.08 a4.3 4.3 0 1 0 8.6 0 a4.3 4.3 0 1 0 -8.6 0zM298.78 122.08 a4.3 4.3 0 1 0 8.6 0 a4.3 4.3 0 1 0 -8.6 0zM261.54 143.58 a4.3 4.3 0 1 0 8.6 0 a4.3 4.3 0 1 0 -8.6 0zM224.3 122.08 a4.3 4.3 0 1 0 8.6 0 a4.3 4.3 0 1 0 -8.6 0zM224.3 79.08 a4.3 4.3 0 1 0 8.6 0 a4.3 4.3 0 1 0 -8.6 0zM261.54 573.58 a4.3 4.3 0 1 0 8.6 0 a4.3 4.3 0 1 0 -8.6 0zM298.78 595.08 a4.3 4.3 0 1 0 8.6 0 a4.3 4.3 0 1 0 -8.6 0zM298.78 638.08 a4.3 4.3 0 1 0 8.6 0 a4.3 4.3 0 1 0 -8.6 0zM261.54 659.58 a4.3 4.3 0 1 0 8.6 0 a4.3 4.3 0 1 0 -8.6 0zM224.3 638.08 a4.3 4.3 0 1 0 8.6 0 a4.3 4.3 0 1 0 -8.6 0zM224.3 595.08 a4.3 4.3 0 1 0 8.6 0 a4.3 4.3 0 1 0 -8.6 0zM261.54 702.58 a4.3 4.3 0 1 0 8.6 0 a4.3 4.3 0 1 0 -8.6 0zM224.3 724.08 a4.3 4.3 0 1 0 8.6 0 a4.3 4.3 0 1 0 -8.6 0zM187.06 702.58 a4.3 4.3 0 1 0 8.6 0 a4.3 4.3 0 1 0 -8.6 0zM187.06 659.58 a4.3 4.3 0 1 0 8.6 0 a4.3 4.3 0 1 0 -8.6 0zM261.54 831.58 a4.3 4.3 0 1 0 8.6 0 a4.3 4.3 0 1 0 -8.6 0zM298.78 853.08 a4.3 4.3 0 1 0 8.6 0 a4.3 4.3 0 1 0 -8.6 0zM298.78 896.08 a4.3 4.3 0 1 0 8.6 0 a4.3 4.3 0 1 0 -8.6 0zM261.54 917.58 a4.3 4.3 0 1 0 8.6 0 a4.3 4.3 0 1 0 -8.6 0zM224.3 896.08 a4.3 4.3 0 1 0 8.6 0 a4.3 4.3 0 1 0 -8.6 0zM224.3 853.08 a4.3 4.3 0 1 0 8.6 0 a4.3 4.3 0 1 0 -8.6 0zM336.02 659.58 a4.3 4.3 0 1 0 8.6 0 a4.3 4.3 0 1 0 -8.6 0zM336.02 702.58 a4.3 4.3 0 1 0 8.6 0 a4.3 4.3 0 1 0 -8.6 0zM298.78 724.08 a4.3 4.3 0 1 0 8.6 0 a4.3 4.3 0 1 0 -8.6 0zM410.5 57.58 a4.3 4.3 0 1 0 8.6 0 a4.3 4.3 0 1 0 -8.6 0zM447.74 79.08 a4.3 4.3 0 1 0 8.6 0 a4.3 4.3 0 1 0 -8.6 0zM447.74 122.08 a4.3 4.3 0 1 0 8.6 0 a4.3 4.3 0 1 0 -8.6 0zM410.5 143.58 a4.3 4.3 0 1 0 8.6 0 a4.3 4.3 0 1 0 -8.6 0zM373.26 122.08 a4.3 4.3 0 1 0 8.6 0 a4.3 4.3 0 1 0 -8.6 0zM373.26 79.08 a4.3 4.3 0 1 0 8.6 0 a4.3 4.3 0 1 0 -8.6 0zM373.26 251.08 a4.3 4.3 0 1 0 8.6 0 a4.3 4.3 0 1 0 -8.6 0zM410.5 272.58 a4.3 4.3 0 1 0 8.6 0 a4.3 4.3 0 1 0 -8.6 0zM410.5 315.58 a4.3 4.3 0 1 0 8.6 0 a4.3 4.3 0 1 0 -8.6 0zM373.26 337.08 a4.3 4.3 0 1 0 8.6 0 a4.3 4.3 0 1 0 -8.6 0zM336.02 315.58 a4.3 4.3 0 1 0 8.6 0 a4.3 4.3 0 1 0 -8.6 0zM336.02 272.58 a4.3 4.3 0 1 0 8.6 0 a4.3 4.3 0 1 0 -8.6 0zM373.26 380.08 a4.3 4.3 0 1 0 8.6 0 a4.3 4.3 0 1 0 -8.6 0zM410.5 401.58 a4.3 4.3 0 1 0 8.6 0 a4.3 4.3 0 1 0 -8.6 0zM410.5 444.58 a4.3 4.3 0 1 0 8.6 0 a4.3 4.3 0 1 0 -8.6 0zM373.26 466.08 a4.3 4.3 0 1 0 8.6 0 a4.3 4.3 0 1 0 -8.6 0zM336.02 444.58 a4.3 4.3 0 1 0 8.6 0 a4.3 4.3 0 1 0 -8.6 0zM336.02 401.58 a4.3 4.3 0 1 0 8.6 0 a4.3 4.3 0 1 0 -8.6 0zM410.5 702.58 a4.3 4.3 0 1 0 8.6 0 a4.3 4.3 0 1 0 -8.6 0zM447.74 724.08 a4.3 4.3 0 1 0 8.6 0 a4.3 4.3 0 1 0 -8.6 0zM447.74 767.08 a4.3 4.3 0 1 0 8.6 0 a4.3 4.3 0 1 0 -8.6 0zM410.5 788.58 a4.3 4.3 0 1 0 8.6 0 a4.3 4.3 0 1 0 -8.6 0zM373.26 767.08 a4.3 4.3 0 1 0 8.6 0 a4.3 4.3 0 1 0 -8.6 0zM373.26 724.08 a4.3 4.3 0 1 0 8.6 0 a4.3 4.3 0 1 0 -8.6 0zM484.98 143.58 a4.3 4.3 0 1 0 8.6 0 a4.3 4.3 0 1 0 -8.6 0zM484.98 186.58 a4.3 4.3 0 1 0 8.6 0 a4.3 4.3 0 1 0 -8.6 0zM447.74 208.08 a4.3 4.3 0 1 0 8.6 0 a4.3 4.3 0 1 0 -8.6 0zM410.5 186.58 a4.3 4.3 0 1 0 8.6 0 a4.3 4.3 0 1 0 -8.6 0zM447.74 509.08 a4.3 4.3 0 1 0 8.6 0 a4.3 4.3 0 1 0 -8.6 0zM484.98 530.58 a4.3 4.3 0 1 0 8.6 0 a4.3 4.3 0 1 0 -8.6 0zM484.98 573.58 a4.3 4.3 0 1 0 8.6 0 a4.3 4.3 0 1 0 -8.6 0zM447.74 595.08 a4.3 4.3 0 1 0 8.6 0 a4.3 4.3 0 1 0 -8.6 0zM410.5 573.58 a4.3 4.3 0 1 0 8.6 0 a4.3 4.3 0 1 0 -8.6 0zM410.5 530.58 a4.3 4.3 0 1 0 8.6 0 a4.3 4.3 0 1 0 -8.6 0zM522.22 251.08 a4.3 4.3 0 1 0 8.6 0 a4.3 4.3 0 1 0 -8.6 0zM559.46 272.58 a4.3 4.3 0 1 0 8.6 0 a4.3 4.3 0 1 0 -8.6 0zM559.46 315.58 a4.3 4.3 0 1 0 8.6 0 a4.3 4.3 0 1 0 -8.6 0zM522.22 337.08 a4.3 4.3 0 1 0 8.6 0 a4.3 4.3 0 1 0 -8.6 0zM484.98 315.58 a4.3 4.3 0 1 0 8.6 0 a4.3 4.3 0 1 0 -8.6 0zM484.98 272.58 a4.3 4.3 0 1 0 8.6 0 a4.3 4.3 0 1 0 -8.6 0zM559.46 444.58 a4.3 4.3 0 1 0 8.6 0 a4.3 4.3 0 1 0 -8.6 0zM596.7 466.08 a4.3 4.3 0 1 0 8.6 0 a4.3 4.3 0 1 0 -8.6 0zM596.7 509.08 a4.3 4.3 0 1 0 8.6 0 a4.3 4.3 0 1 0 -8.6 0zM559.46 530.58 a4.3 4.3 0 1 0 8.6 0 a4.3 4.3 0 1 0 -8.6 0zM522.22 509.08 a4.3 4.3 0 1 0 8.6 0 a4.3 4.3 0 1 0 -8.6 0zM522.22 466.08 a4.3 4.3 0 1 0 8.6 0 a4.3 4.3 0 1 0 -8.6 0zM559.46 960.58 a4.3 4.3 0 1 0 8.6 0 a4.3 4.3 0 1 0 -8.6 0zM596.7 982.08 a4.3 4.3 0 1 0 8.6 0 a4.3 4.3 0 1 0 -8.6 0zM596.7 1025.08 a4.3 4.3 0 1 0 8.6 0 a4.3 4.3 0 1 0 -8.6 0zM559.46 1046.58 a4.3 4.3 0 1 0 8.6 0 a4.3 4.3 0 1 0 -8.6 0zM522.22 1025.08 a4.3 4.3 0 1 0 8.6 0 a4.3 4.3 0 1 0 -8.6 0zM522.22 982.08 a4.3 4.3 0 1 0 8.6 0 a4.3 4.3 0 1 0 -8.6 0zM633.94 444.58 a4.3 4.3 0 1 0 8.6 0 a4.3 4.3 0 1 0 -8.6 0zM671.18 466.08 a4.3 4.3 0 1 0 8.6 0 a4.3 4.3 0 1 0 -8.6 0zM671.18 509.08 a4.3 4.3 0 1 0 8.6 0 a4.3 4.3 0 1 0 -8.6 0zM633.94 530.58 a4.3 4.3 0 1 0 8.6 0 a4.3 4.3 0 1 0 -8.6 0zM633.94 573.58 a4.3 4.3 0 1 0 8.6 0 a4.3 4.3 0 1 0 -8.6 0zM596.7 595.08 a4.3 4.3 0 1 0 8.6 0 a4.3 4.3 0 1 0 -8.6 0zM559.46 573.58 a4.3 4.3 0 1 0 8.6 0 a4.3 4.3 0 1 0 -8.6 0zM633.94 1046.58 a4.3 4.3 0 1 0 8.6 0 a4.3 4.3 0 1 0 -8.6 0zM633.94 1089.58 a4.3 4.3 0 1 0 8.6 0 a4.3 4.3 0 1 0 -8.6 0zM596.7 1111.08 a4.3 4.3 0 1 0 8.6 0 a4.3 4.3 0 1 0 -8.6 0zM559.46 1089.58 a4.3 4.3 0 1 0 8.6 0 a4.3 4.3 0 1 0 -8.6 0zM671.18 -6.92 a4.3 4.3 0 1 0 8.6 0 a4.3 4.3 0 1 0 -8.6 0zM708.42 14.58 a4.3 4.3 0 1 0 8.6 0 a4.3 4.3 0 1 0 -8.6 0zM708.42 57.58 a4.3 4.3 0 1 0 8.6 0 a4.3 4.3 0 1 0 -8.6 0zM671.18 79.08 a4.3 4.3 0 1 0 8.6 0 a4.3 4.3 0 1 0 -8.6 0zM633.94 57.58 a4.3 4.3 0 1 0 8.6 0 a4.3 4.3 0 1 0 -8.6 0zM633.94 14.58 a4.3 4.3 0 1 0 8.6 0 a4.3 4.3 0 1 0 -8.6 0zM708.42 186.58 a4.3 4.3 0 1 0 8.6 0 a4.3 4.3 0 1 0 -8.6 0zM745.66 208.08 a4.3 4.3 0 1 0 8.6 0 a4.3 4.3 0 1 0 -8.6 0zM745.66 251.08 a4.3 4.3 0 1 0 8.6 0 a4.3 4.3 0 1 0 -8.6 0zM708.42 272.58 a4.3 4.3 0 1 0 8.6 0 a4.3 4.3 0 1 0 -8.6 0zM671.18 251.08 a4.3 4.3 0 1 0 8.6 0 a4.3 4.3 0 1 0 -8.6 0zM671.18 208.08 a4.3 4.3 0 1 0 8.6 0 a4.3 4.3 0 1 0 -8.6 0zM708.42 960.58 a4.3 4.3 0 1 0 8.6 0 a4.3 4.3 0 1 0 -8.6 0zM745.66 982.08 a4.3 4.3 0 1 0 8.6 0 a4.3 4.3 0 1 0 -8.6 0zM745.66 1025.08 a4.3 4.3 0 1 0 8.6 0 a4.3 4.3 0 1 0 -8.6 0zM708.42 1046.58 a4.3 4.3 0 1 0 8.6 0 a4.3 4.3 0 1 0 -8.6 0zM671.18 1025.08 a4.3 4.3 0 1 0 8.6 0 a4.3 4.3 0 1 0 -8.6 0zM671.18 982.08 a4.3 4.3 0 1 0 8.6 0 a4.3 4.3 0 1 0 -8.6 0zM782.9 186.58 a4.3 4.3 0 1 0 8.6 0 a4.3 4.3 0 1 0 -8.6 0zM820.14 208.08 a4.3 4.3 0 1 0 8.6 0 a4.3 4.3 0 1 0 -8.6 0zM820.14 251.08 a4.3 4.3 0 1 0 8.6 0 a4.3 4.3 0 1 0 -8.6 0zM782.9 272.58 a4.3 4.3 0 1 0 8.6 0 a4.3 4.3 0 1 0 -8.6 0zM745.66 896.08 a4.3 4.3 0 1 0 8.6 0 a4.3 4.3 0 1 0 -8.6 0zM782.9 917.58 a4.3 4.3 0 1 0 8.6 0 a4.3 4.3 0 1 0 -8.6 0zM782.9 960.58 a4.3 4.3 0 1 0 8.6 0 a4.3 4.3 0 1 0 -8.6 0zM708.42 917.58 a4.3 4.3 0 1 0 8.6 0 a4.3 4.3 0 1 0 -8.6 0zM820.14 509.08 a4.3 4.3 0 1 0 8.6 0 a4.3 4.3 0 1 0 -8.6 0zM857.38 530.58 a4.3 4.3 0 1 0 8.6 0 a4.3 4.3 0 1 0 -8.6 0zM857.38 573.58 a4.3 4.3 0 1 0 8.6 0 a4.3 4.3 0 1 0 -8.6 0zM820.14 595.08 a4.3 4.3 0 1 0 8.6 0 a4.3 4.3 0 1 0 -8.6 0zM782.9 573.58 a4.3 4.3 0 1 0 8.6 0 a4.3 4.3 0 1 0 -8.6 0zM782.9 530.58 a4.3 4.3 0 1 0 8.6 0 a4.3 4.3 0 1 0 -8.6 0zM857.38 831.58 a4.3 4.3 0 1 0 8.6 0 a4.3 4.3 0 1 0 -8.6 0zM894.62 853.08 a4.3 4.3 0 1 0 8.6 0 a4.3 4.3 0 1 0 -8.6 0zM894.62 896.08 a4.3 4.3 0 1 0 8.6 0 a4.3 4.3 0 1 0 -8.6 0zM857.38 917.58 a4.3 4.3 0 1 0 8.6 0 a4.3 4.3 0 1 0 -8.6 0zM820.14 896.08 a4.3 4.3 0 1 0 8.6 0 a4.3 4.3 0 1 0 -8.6 0zM820.14 853.08 a4.3 4.3 0 1 0 8.6 0 a4.3 4.3 0 1 0 -8.6 0zM969.1 638.08 a4.3 4.3 0 1 0 8.6 0 a4.3 4.3 0 1 0 -8.6 0zM1006.34 659.58 a4.3 4.3 0 1 0 8.6 0 a4.3 4.3 0 1 0 -8.6 0zM1006.34 702.58 a4.3 4.3 0 1 0 8.6 0 a4.3 4.3 0 1 0 -8.6 0zM969.1 724.08 a4.3 4.3 0 1 0 8.6 0 a4.3 4.3 0 1 0 -8.6 0zM931.86 702.58 a4.3 4.3 0 1 0 8.6 0 a4.3 4.3 0 1 0 -8.6 0zM931.86 659.58 a4.3 4.3 0 1 0 8.6 0 a4.3 4.3 0 1 0 -8.6 0zM1043.58 724.08 a4.3 4.3 0 1 0 8.6 0 a4.3 4.3 0 1 0 -8.6 0zM1043.58 767.08 a4.3 4.3 0 1 0 8.6 0 a4.3 4.3 0 1 0 -8.6 0zM1006.34 788.58 a4.3 4.3 0 1 0 8.6 0 a4.3 4.3 0 1 0 -8.6 0zM969.1 767.08 a4.3 4.3 0 1 0 8.6 0 a4.3 4.3 0 1 0 -8.6 0zM1043.58 638.08 a4.3 4.3 0 1 0 8.6 0 a4.3 4.3 0 1 0 -8.6 0zM1080.82 659.58 a4.3 4.3 0 1 0 8.6 0 a4.3 4.3 0 1 0 -8.6 0zM1080.82 702.58 a4.3 4.3 0 1 0 8.6 0 a4.3 4.3 0 1 0 -8.6 0zM1118.06 251.08 a4.3 4.3 0 1 0 8.6 0 a4.3 4.3 0 1 0 -8.6 0zM1155.3 272.58 a4.3 4.3 0 1 0 8.6 0 a4.3 4.3 0 1 0 -8.6 0zM1155.3 315.58 a4.3 4.3 0 1 0 8.6 0 a4.3 4.3 0 1 0 -8.6 0zM1118.06 337.08 a4.3 4.3 0 1 0 8.6 0 a4.3 4.3 0 1 0 -8.6 0zM1080.82 315.58 a4.3 4.3 0 1 0 8.6 0 a4.3 4.3 0 1 0 -8.6 0zM1080.82 272.58 a4.3 4.3 0 1 0 8.6 0 a4.3 4.3 0 1 0 -8.6 0zM1155.3 702.58 a4.3 4.3 0 1 0 8.6 0 a4.3 4.3 0 1 0 -8.6 0zM1192.54 724.08 a4.3 4.3 0 1 0 8.6 0 a4.3 4.3 0 1 0 -8.6 0zM1192.54 767.08 a4.3 4.3 0 1 0 8.6 0 a4.3 4.3 0 1 0 -8.6 0zM1155.3 788.58 a4.3 4.3 0 1 0 8.6 0 a4.3 4.3 0 1 0 -8.6 0zM1118.06 767.08 a4.3 4.3 0 1 0 8.6 0 a4.3 4.3 0 1 0 -8.6 0zM1118.06 724.08 a4.3 4.3 0 1 0 8.6 0 a4.3 4.3 0 1 0 -8.6 0zM1192.54 251.08 a4.3 4.3 0 1 0 8.6 0 a4.3 4.3 0 1 0 -8.6 0zM1229.78 272.58 a4.3 4.3 0 1 0 8.6 0 a4.3 4.3 0 1 0 -8.6 0zM1229.78 315.58 a4.3 4.3 0 1 0 8.6 0 a4.3 4.3 0 1 0 -8.6 0zM1192.54 337.08 a4.3 4.3 0 1 0 8.6 0 a4.3 4.3 0 1 0 -8.6 0zM1267.03 509.08 a4.3 4.3 0 1 0 8.6 0 a4.3 4.3 0 1 0 -8.6 0zM1304.27 530.58 a4.3 4.3 0 1 0 8.6 0 a4.3 4.3 0 1 0 -8.6 0zM1304.27 573.58 a4.3 4.3 0 1 0 8.6 0 a4.3 4.3 0 1 0 -8.6 0zM1267.03 595.08 a4.3 4.3 0 1 0 8.6 0 a4.3 4.3 0 1 0 -8.6 0zM1229.78 573.58 a4.3 4.3 0 1 0 8.6 0 a4.3 4.3 0 1 0 -8.6 0zM1229.78 530.58 a4.3 4.3 0 1 0 8.6 0 a4.3 4.3 0 1 0 -8.6 0zM1341.51 122.08 a4.3 4.3 0 1 0 8.6 0 a4.3 4.3 0 1 0 -8.6 0zM1378.75 143.58 a4.3 4.3 0 1 0 8.6 0 a4.3 4.3 0 1 0 -8.6 0zM1378.75 186.58 a4.3 4.3 0 1 0 8.6 0 a4.3 4.3 0 1 0 -8.6 0zM1341.51 208.08 a4.3 4.3 0 1 0 8.6 0 a4.3 4.3 0 1 0 -8.6 0zM1304.27 186.58 a4.3 4.3 0 1 0 8.6 0 a4.3 4.3 0 1 0 -8.6 0zM1304.27 143.58 a4.3 4.3 0 1 0 8.6 0 a4.3 4.3 0 1 0 -8.6 0zM1415.99 380.08 a4.3 4.3 0 1 0 8.6 0 a4.3 4.3 0 1 0 -8.6 0zM1453.23 401.58 a4.3 4.3 0 1 0 8.6 0 a4.3 4.3 0 1 0 -8.6 0zM1453.23 444.58 a4.3 4.3 0 1 0 8.6 0 a4.3 4.3 0 1 0 -8.6 0zM1415.99 466.08 a4.3 4.3 0 1 0 8.6 0 a4.3 4.3 0 1 0 -8.6 0zM1378.75 444.58 a4.3 4.3 0 1 0 8.6 0 a4.3 4.3 0 1 0 -8.6 0zM1378.75 401.58 a4.3 4.3 0 1 0 8.6 0 a4.3 4.3 0 1 0 -8.6 0zM1415.99 638.08 a4.3 4.3 0 1 0 8.6 0 a4.3 4.3 0 1 0 -8.6 0zM1453.23 659.58 a4.3 4.3 0 1 0 8.6 0 a4.3 4.3 0 1 0 -8.6 0zM1453.23 702.58 a4.3 4.3 0 1 0 8.6 0 a4.3 4.3 0 1 0 -8.6 0zM1415.99 724.08 a4.3 4.3 0 1 0 8.6 0 a4.3 4.3 0 1 0 -8.6 0zM1378.75 702.58 a4.3 4.3 0 1 0 8.6 0 a4.3 4.3 0 1 0 -8.6 0zM1378.75 659.58 a4.3 4.3 0 1 0 8.6 0 a4.3 4.3 0 1 0 -8.6 0z" fill="rgba(6, 80, 156, 0.93)"></path></g><defs><mask id="SvgjsMask1419"><rect width="1434" height="1000" fill="#ffffff"></rect></mask><linearGradient x1="7.57%" y1="-10.85%" x2="92.43%" y2="110.85%" gradientUnits="userSpaceOnUse" id="SvgjsLinearGradient1420"><stop stop-color="#0e2a47" offset="0"></stop><stop stop-color="rgba(99, 22, 117, 1)" offset="1"></stop></linearGradient></defs></svg>